<?xml version="1.0" encoding="utf-8"?>
<!-- Generator: Adobe Illustrator 24.2.1, SVG Export Plug-In . SVG Version: 6.00 Build 0)  -->
<svg version="1.1" xmlns="http://www.w3.org/2000/svg" xmlns:xlink="http://www.w3.org/1999/xlink" x="0px" y="0px"
	 viewBox="0 0 2000 2000" style="enable-background:new 0 0 2000 2000;" xml:space="preserve">
<style type="text/css">
	.st0{fill:#F9D8CA;}
	.st1{fill:#F9C2AF;}
	.st2{fill:#7CB8DA;}
	.st3{fill:#2F3C6A;}
	.st4{fill:#58669A;}
	.st5{fill:#657AC7;}
	.st6{opacity:0.5;fill:#212E47;}
	.st7{fill:#F76239;}
	.st8{fill:#FFFFFF;}
	.st9{fill:#DE5833;}
	.st10{fill:#DEDFE0;}
	.st11{fill:#9EADEA;}
	.st12{opacity:0.6;fill:#9EADEA;}
	.st13{fill:#D66CA0;}
	.st14{fill:#8F6390;}
	.st15{opacity:0.25;fill:#FFFFFF;}
	.st16{fill:#FFA935;}
	.st17{fill:#FF9017;}
	.st18{fill:#9ECFFF;}
	.st19{fill:#D7EDFF;}
	.st20{fill:#C1E0FF;}
	.st21{fill:#CE4F32;}
	.st22{opacity:0.3;fill:#2F3C6A;}
	.st23{fill:#E89761;}
	.st24{fill:#303A60;}
	.st25{fill:#FFC882;}
	.st26{fill:#8999CE;}
	.st27{fill:#FFB37F;}
	.st28{fill:#FF8415;}
	.st29{fill:#D1D3D4;}
	.st30{fill:#FF970D;}
	.st31{fill:#CE7300;}
	.st32{fill:#E48800;}
	.st33{fill:#FCB554;}
	.st34{fill:#68A6BC;}
	.st35{fill:#504375;}
	.st36{opacity:0.6;fill:#E9EEFF;}
	.st37{fill:#E9EEFF;}
	.st38{fill:#6B528C;}
	.st39{fill:#DB7D0E;}
	.st40{fill:#FEEEE1;}
</style>
<g id="background">
</g>
<g id="objact">
	<g id="XMLID_1_">
		<path id="XMLID_213_" class="st0" d="M1940,1168.2c0,0-42.4-126.3-157.9-203.1c0,0-176.4-93.9-71.4-217.3
			c151.2-160.6,121.8-311.8,121.8-311.8c-25.2-411-788.5-297.6-788.5-297.6c-704.7,55.9-705.9,364.4-675,492.4
			c6.2,25.8,17.1,49.9,31.3,71.3c27.4,41.3,73.1,158.7-163.6,291.3c0,0-193.2,118.1-176.4,363.7c0,0,37.8,571.6,1087.6,486.5
			C1148.1,1843.7,2141.6,1787,1940,1168.2z"/>
		<g id="XMLID_2_">
			<path id="XMLID_3_" class="st1" d="M1381.6,1034.5v366.6h-24V938.1l-271.4-54.3v311.5h-22.7v-220h-26.3V933H731.6v42.3h-26.3
				v322.9h-26.1v-291.3L440,952.6v393l-27.6-2v-180.5h-26.3V1084h-35.7v-87.1h-54.6v-81.8h-63v81.8h-54.6v87.1h-35.7v79.1h-26.3
				v616.2l1475.7-15.8v-729H1381.6z M195.9,1179.8h-31.2v-38.1h31.2V1179.8z M228.5,1060h-31.2v-38.1h31.2V1060z M283,1125.3h-31.2
				v-38.1H283V1125.3z M283,1060h-31.2v-38.1H283V1060z M337.5,1234.3h-31.2v-38.1h31.2V1234.3z M337.5,1060h-31.2v-38.1h31.2V1060z
				 M498.2,1210.5h-31.2v-38.1h31.2V1210.5z M498.2,1068.9h-31.2v-38.1h31.2V1068.9z M552.7,1112.5h-31.2v-38.1h31.2V1112.5z
				 M607.2,1166.9H576v-38.1h31.2V1166.9z M607.2,1068.9H576v-38.1h31.2V1068.9z M770.6,1047.1h-31.2V1009h31.2V1047.1z
				 M868.6,1211.6h-31.2v-38.1h31.2V1211.6z M868.6,1047.1h-31.2V1009h31.2V1047.1z M923.1,1166.9h-31.2v-38.1h31.2V1166.9z
				 M923.1,1047.1h-31.2V1009h31.2V1047.1z M988.4,1112.5h-31.2v-38.1h31.2V1112.5z M1032,1112.5h-31.2v-38.1h31.2V1112.5z
				 M1032,1047.1h-31.2V1009h31.2V1047.1z M1151.8,1207.8h-31.2v-38.1h31.2V1207.8z M1151.8,1047.1h-31.2V1009h31.2V1047.1z
				 M1217.2,1166.9H1186v-38.1h31.2V1166.9z M1282.5,1112.5h-31.2v-38.1h31.2V1112.5z M1326.1,1112.5h-31.2v-38.1h31.2V1112.5z
				 M1326.1,1047.1h-31.2V1009h31.2V1047.1z M1445.9,1287.8h-31.2v-38.1h31.2V1287.8z M1445.9,1123.4h-31.2v-38.1h31.2V1123.4z
				 M1500.4,1243.2h-31.2V1205h31.2V1243.2z M1500.4,1123.4h-31.2v-38.1h31.2V1123.4z M1565.7,1188.7h-31.2v-38.1h31.2V1188.7z
				 M1883.9,1251.3v-79.1h-35.7V1085h-54.6v-81.8h-63v81.8H1676v87.1h-35.7v79.1H1614v517.5l296.2-2.6v-514.9H1883.9z M1693.6,1268
				h-31.2v-38.1h31.2V1268z M1726.3,1148.2h-31.2V1110h31.2V1148.2z M1780.8,1213.6h-31.2v-38.1h31.2V1213.6z M1780.8,1148.2h-31.2
				V1110h31.2V1148.2z M1835.2,1322.5H1804v-38.1h31.2V1322.5z M1835.2,1148.2H1804V1110h31.2V1148.2z"/>
		</g>
		<g>
			<g id="XMLID_413_">
				<path id="XMLID_417_" class="st2" d="M456.2,578.6l16.4-14.9l-0.6-1.5c-1.8-4.7-4-9.3-6.4-13.7l-0.8-1.5l-21.5,3.6
					c-2.7-3.8-5.7-7.5-9-10.9c-3.3-3.4-6.8-6.5-10.5-9.3L428,509l-1.4-0.9c-4.3-2.6-8.8-4.9-13.4-6.9l-1.5-0.6l-15.5,15.8
					c-8.6-2.6-17.6-4-26.6-3.9l-9-19.8l-1.7,0.2c-5.4,0.5-10.7,1.5-15.9,2.8l-1.5,0.4l-3.3,22.4c-7.5,2.9-14.6,6.7-21,11.5
					L297.9,519l-1.3,1.1c-1.2,1.1-2.2,2-3.2,2.9c-3.2,3.1-6.3,6.4-9.1,9.9l-1,1.2l10.7,20.4c-3.6,5.8-6.5,11.9-8.7,18.4l-22.2,2.5
					l-0.4,1.6c-1.4,6.2-2.4,12.7-2.7,19.1l-0.1,1.6l20.8,10.3c0.4,5.8,1.4,11.5,2.9,17.1L267,640.6l0.6,1.5
					c2.5,6.3,5.5,12.4,9.1,18.1l0.8,1.3l22.8-3.8c1.7,2.1,3.5,4.2,5.4,6.1c1.9,1.9,3.9,3.8,5.9,5.6L307,692l1.3,0.9
					c5.6,3.8,11.5,7.1,17.7,9.7l1.5,0.7l15.9-16.3c5.5,1.7,11.3,2.9,17,3.5l9.6,21.2l1.6,0c6.4-0.1,12.9-0.8,19.2-2l1.7-0.3
					l3.3-22.1c6.5-2,12.8-4.7,18.6-8l20,11.4l1.2-0.9c3.6-2.7,7-5.6,10.2-8.7c0.9-0.9,1.9-1.9,3-3.1l1.2-1.2L440,657.2
					c5-6.3,9.1-13.2,12.2-20.6l22.5-2.5l0.4-1.5c1.5-5.1,2.6-10.4,3.3-15.8l0.2-1.7l-19.5-9.7C459.5,596.3,458.5,587.3,456.2,578.6z
					 M413.8,614.7c-6.5,27.7-34.2,44.9-61.9,38.4c-27.7-6.5-44.9-34.2-38.4-61.9c6.5-27.7,34.2-44.9,61.9-38.4
					C403.1,559.2,420.3,587,413.8,614.7z"/>
				<path id="XMLID_414_" class="st2" d="M636.5,364.7L658,345l-0.8-2c-2.4-6.1-5.2-12.2-8.5-18l-1.1-1.9l-28.3,4.8
					c-3.5-5-7.5-9.8-11.8-14.3c-4.3-4.4-8.9-8.6-13.8-12.3l5.8-28.1l-1.9-1.1c-5.7-3.4-11.6-6.5-17.6-9.1l-2-0.8L557.7,283
					c-11.3-3.5-23.2-5.2-35-5.1l-11.8-26.1l-2.2,0.2c-7,0.7-14.1,1.9-20.9,3.6l-2,0.5l-4.4,29.4c-9.8,3.8-19.1,8.8-27.6,15.1
					l-25.1-14.2l-1.7,1.5c-1.6,1.4-2.9,2.7-4.1,3.8c-4.2,4.1-8.2,8.4-11.9,13l-1.3,1.6l14,26.8c-4.7,7.6-8.5,15.7-11.4,24.1
					l-29.1,3.3l-0.5,2.2c-1.9,8.2-3.1,16.7-3.5,25.1l-0.1,2l27.3,13.6c0.5,7.6,1.8,15.1,3.8,22.5L388,446.1l0.8,2
					c3.2,8.2,7.3,16.2,12,23.7l1.1,1.8l30-5.1c2.2,2.8,4.6,5.5,7.1,8c2.5,2.5,5.1,5,7.8,7.3l-6.1,29.8l1.7,1.2
					c7.3,5,15.2,9.3,23.3,12.8l2,0.9l20.9-21.4c7.3,2.3,14.8,3.8,22.3,4.6l12.6,27.8l2.1,0c8.5-0.1,16.9-1,25.2-2.7l2.2-0.4l4.3-29
					c8.5-2.6,16.8-6.1,24.5-10.6l26.3,15l1.6-1.2c4.7-3.5,9.2-7.4,13.4-11.5c1.2-1.2,2.5-2.5,4-4l1.6-1.6l-13.4-25.6
					c6.6-8.3,12-17.4,16.1-27.1l29.5-3.3l0.6-2c1.9-6.7,3.4-13.7,4.4-20.7l0.3-2.2l-25.6-12.7C640.9,387.9,639.6,376.1,636.5,364.7z
					 M580.8,412.1c-8.5,36.4-45,59-81.3,50.4c-36.4-8.5-59-45-50.4-81.3c8.5-36.4,45-59,81.3-50.4
					C566.8,339.3,589.4,375.7,580.8,412.1z"/>
			</g>
			<g id="XMLID_404_">
				<g id="XMLID_406_">
					<path id="XMLID_411_" class="st3" d="M1484.4,1782.8H542c-19.4,0-35-15.7-35-35V419.9c0-19.4,15.7-35,35-35h942.5
						c19.4,0,35,15.7,35,35v1327.8C1519.5,1767.1,1503.8,1782.8,1484.4,1782.8z"/>
					<rect id="XMLID_409_" x="580.3" y="483.4" class="st4" width="865.7" height="1128.4"/>
					<circle id="XMLID_407_" class="st5" cx="1013.2" cy="1689.1" r="50.5"/>
				</g>
				<path id="XMLID_405_" class="st5" d="M1085.6,443.1H940.8c-4.8,0-8.6-3.9-8.6-8.6l0,0c0-4.8,3.9-8.6,8.6-8.6h144.8
					c4.8,0,8.6,3.9,8.6,8.6l0,0C1094.2,439.2,1090.3,443.1,1085.6,443.1z"/>
			</g>
			<g id="XMLID_382_">
				<path id="XMLID_402_" class="st6" d="M1445,507.4H581.4L520,654v25.2c0,31.7,25.7,57.5,57.5,57.5c31.7,0,57.5-25.7,57.5-57.5
					v2.7c0,30.3,24.5,54.8,54.8,54.8c30.3,0,54.8-24.5,54.8-54.8v5c0,27.5,22.3,49.8,49.8,49.8c27.5,0,49.8-22.3,49.8-49.8v-9.2
					c0,32.6,26.4,59,59,59c32.6,0,59-26.4,59-59l0.6,8c0,28.2,22.8,51,50.9,51s50.9-22.8,50.9-51v-8c0,32.6,26.4,59,58.9,59
					s58.9-26.4,58.9-59v9.2c0,27.5,22.3,49.8,49.8,49.8c27.5,0,49.8-22.3,49.8-49.8v-5c0,30.3,24.5,54.8,54.7,54.8
					c30.2,0,54.7-24.5,54.7-54.8v-2.7c0,31.7,25.7,57.5,57.4,57.5s57.4-25.7,57.4-57.5V654L1445,507.4z"/>
				<g id="XMLID_383_">
					<polygon id="XMLID_401_" class="st7" points="520,630 635.4,630 675.4,483.4 581.4,483.4 					"/>
					<polygon id="XMLID_400_" class="st8" points="635,630 745,630 774.4,483.4 675.1,483.4 					"/>
					<polygon id="XMLID_399_" class="st7" points="844.3,630 744.6,630 774.4,483.4 863.5,483.4 					"/>
					<polygon id="XMLID_398_" class="st8" points="962.1,630 844.3,630 863.5,483.4 962.1,483.4 					"/>
					<rect id="XMLID_397_" x="962.1" y="483.4" class="st7" width="102.2" height="146.6"/>
					<polygon id="XMLID_396_" class="st7" points="1506.4,630 1391,630 1351,483.4 1445,483.4 					"/>
					<polygon id="XMLID_395_" class="st8" points="1391.4,630 1281.4,630 1252,483.4 1351.3,483.4 					"/>
					<polygon id="XMLID_394_" class="st7" points="1182.1,630 1281.8,630 1252,483.4 1162.9,483.4 					"/>
					<polygon id="XMLID_393_" class="st8" points="1064.3,630 1182.1,630 1162.9,483.4 1064.3,483.4 					"/>
					<path id="XMLID_392_" class="st9" d="M520,655.2c0,31.7,25.7,57.5,57.5,57.5c31.7,0,57.5-25.7,57.5-57.5V630H520V655.2z"/>
					<path id="XMLID_391_" class="st10" d="M635,657.9c0,30.3,24.5,54.8,54.8,54.8c30.3,0,54.8-24.5,54.8-54.8V630H635V657.9z"/>
					<path id="XMLID_390_" class="st9" d="M744.6,662.9c0,27.5,22.3,49.8,49.8,49.8c27.5,0,49.8-22.3,49.8-49.8V630h-99.7V662.9z"/>
					<path id="XMLID_389_" class="st10" d="M844.3,653.7c0,32.6,26.4,59,59,59c32.6,0,59-26.4,59-59V630h-118V653.7z"/>
					<path id="XMLID_388_" class="st9" d="M962.9,661.7c0,28.2,22.8,51,50.9,51c28.1,0,50.9-22.8,50.9-51V630H962.9V661.7z"/>
					<path id="XMLID_387_" class="st9" d="M1506.4,655.2c0,31.7-25.7,57.5-57.4,57.5c-31.7,0-57.4-25.7-57.4-57.5V630h114.8V655.2z"
						/>
					<path id="XMLID_386_" class="st10" d="M1391.6,657.9c0,30.3-24.5,54.8-54.7,54.8s-54.7-24.5-54.7-54.8V630h109.5V657.9z"/>
					<path id="XMLID_385_" class="st9" d="M1282.1,662.9c0,27.5-22.3,49.8-49.8,49.8c-27.5,0-49.8-22.3-49.8-49.8V630h99.5V662.9z"
						/>
					<path id="XMLID_384_" class="st10" d="M1182.6,653.7c0,32.6-26.4,59-58.9,59s-58.9-26.4-58.9-59V630h117.8V653.7z"/>
				</g>
			</g>
			<g id="XMLID_323_">
				<g id="XMLID_363_">
					<g id="XMLID_365_">
						<g id="XMLID_367_">
							<path id="XMLID_381_" class="st5" d="M879,1002.8H658.4c-9.1,0-16.4-7.3-16.4-16.4V772.1c0-9.1,7.3-16.4,16.4-16.4H879
								c9.1,0,16.4,7.3,16.4,16.4v214.2C895.4,995.4,888.1,1002.8,879,1002.8z"/>
							<path id="XMLID_380_" class="st11" d="M1382.8,782.9h-442c-0.9,0-1.6-0.7-1.6-1.6v-24c0-0.9,0.7-1.6,1.6-1.6h442
								c0.9,0,1.6,0.7,1.6,1.6v24C1384.4,782.2,1383.7,782.9,1382.8,782.9z"/>
							<g id="XMLID_376_">
								<path id="XMLID_379_" class="st5" d="M1376.8,836.2H986.9c-4.2,0-7.6-3.4-7.6-7.6l0,0c0-4.2,3.4-7.6,7.6-7.6h389.8
									c4.2,0,7.6,3.4,7.6,7.6l0,0C1384.4,832.8,1381,836.2,1376.8,836.2z"/>
								<path id="XMLID_378_" class="st5" d="M1376.8,868.8H986.9c-4.2,0-7.6-3.4-7.6-7.6l0,0c0-4.2,3.4-7.6,7.6-7.6h389.8
									c4.2,0,7.6,3.4,7.6,7.6l0,0C1384.4,865.4,1381,868.8,1376.8,868.8z"/>
								<path id="XMLID_377_" class="st5" d="M1376.8,901.5H986.9c-4.2,0-7.6-3.4-7.6-7.6v0c0-4.2,3.4-7.6,7.6-7.6h389.8
									c4.2,0,7.6,3.4,7.6,7.6v0C1384.4,898.1,1381,901.5,1376.8,901.5z"/>
							</g>
							<path id="XMLID_375_" class="st12" d="M951,840.5L951,840.5c-6.6,0-11.9-5.3-11.9-11.9l0,0c0-6.6,5.3-11.9,11.9-11.9l0,0
								c6.6,0,11.9,5.3,11.9,11.9l0,0C962.9,835.2,957.5,840.5,951,840.5z"/>
							<path id="XMLID_374_" class="st12" d="M951,873.1L951,873.1c-6.6,0-11.9-5.3-11.9-11.9l0,0c0-6.6,5.3-11.9,11.9-11.9l0,0
								c6.6,0,11.9,5.3,11.9,11.9l0,0C962.9,867.8,957.5,873.1,951,873.1z"/>
							<path id="XMLID_373_" class="st12" d="M951,905.8L951,905.8c-6.6,0-11.9-5.3-11.9-11.9v0c0-6.6,5.3-11.9,11.9-11.9l0,0
								c6.6,0,11.9,5.3,11.9,11.9v0C962.9,900.4,957.5,905.8,951,905.8z"/>
							<g id="XMLID_370_">
								<path id="XMLID_372_" class="st5" d="M1376.8,934.1H986.9c-4.2,0-7.6-3.4-7.6-7.6v0c0-4.2,3.4-7.6,7.6-7.6h389.8
									c4.2,0,7.6,3.4,7.6,7.6v0C1384.4,930.7,1381,934.1,1376.8,934.1z"/>
								<path id="XMLID_371_" class="st5" d="M1376.8,966.7H986.9c-4.2,0-7.6-3.4-7.6-7.6l0,0c0-4.2,3.4-7.6,7.6-7.6h389.8
									c4.2,0,7.6,3.4,7.6,7.6l0,0C1384.4,963.3,1381,966.7,1376.8,966.7z"/>
							</g>
							<path id="XMLID_369_" class="st12" d="M951,938.4L951,938.4c-6.6,0-11.9-5.3-11.9-11.9v0c0-6.6,5.3-11.9,11.9-11.9l0,0
								c6.6,0,11.9,5.3,11.9,11.9v0C962.9,933.1,957.5,938.4,951,938.4z"/>
							<path id="XMLID_368_" class="st12" d="M951,971L951,971c-6.6,0-11.9-5.3-11.9-11.9v0c0-6.6,5.3-11.9,11.9-11.9l0,0
								c6.6,0,11.9,5.3,11.9,11.9v0C962.9,965.7,957.5,971,951,971z"/>
						</g>
						<path id="XMLID_366_" class="st5" d="M1365,1264.6h-269.2c-10.7,0-19.4-8.7-19.4-19.4v-190.3c0-10.7,8.7-19.4,19.4-19.4H1365
							c10.7,0,19.4,8.7,19.4,19.4v190.3C1384.4,1255.9,1375.7,1264.6,1365,1264.6z"/>
					</g>
					<path id="XMLID_364_" class="st7" d="M1362.8,1349.7h-177.1c-15.5,0-28.1-12.6-28.1-28.1l0,0c0-15.5,12.6-28.1,28.1-28.1h177.1
						c15.5,0,28.1,12.6,28.1,28.1l0,0C1390.9,1337.1,1378.3,1349.7,1362.8,1349.7z"/>
				</g>
				<rect id="XMLID_362_" x="580.3" y="1574.1" class="st2" width="865.7" height="37.8"/>
				<g>
					<g id="XMLID_50_">
						<path id="XMLID_51_" class="st13" d="M1179.4,1067.4c-3.7-1.6-8.1-0.8-11.2,1.8c-7,5.9-21.6,22.4-11.9,50.3
							c0,0,18.8,53.7,9,105.7h11c0,0-2.4-59.7,14.9-77.9c0,0,15.2,16.7,22.4,49.2l5.4,24.2c0,0,3.3,16.7,30.1,15.5
							c0,0,66,0,80.4-26.3c2.4-4.5,2.5-9.8,0.5-14.5c-4-9.1-15.2-25.2-45.3-32c-4.8-1.1-9.8-1.6-14.8-1.5
							c-7.2,0.1-17.2-0.9-26.5-12.2l-52.2-72.5C1191.3,1077.1,1185.9,1070.2,1179.4,1067.4z"/>
						<path id="XMLID_52_" class="st14" d="M1296.1,1166.9l0-0.3c-3.4-1.2-7.2-2.3-11.3-3.3c-4.8-1.1-9.8-1.6-14.8-1.5
							c-7.2,0.1-17.2-0.9-26.5-12.2l-52.2-72.5c0,0-5.4-6.9-11.9-9.7c-1.4-0.6-3-0.9-4.5-0.8l0,0.1c0,0,21.5,33.4,53.7,82.4
							C1228.6,1149,1255.5,1192.6,1296.1,1166.9z"/>
					</g>
					<path class="st15" d="M1307.7,1218.5c-11.7,7.1-27,3.3-29.7-1.1c-2.7-4.4,8.7-4.4,20.3-11.5c11.7-7.1,19.3-18.6,21.9-14.2
						C1323,1196.1,1319.4,1211.4,1307.7,1218.5z"/>
				</g>
				<g id="XMLID_358_">
					<path id="XMLID_361_" class="st16" d="M721.4,831.6h94.8c5.8,0,10.6,4.6,10.9,10.3l7.1,109.8c0.3,6.2-4.6,11.4-10.9,11.4H713.5
						c-6.2,0-11.2-5.2-10.9-11.4l8-109.8C710.8,836.2,715.6,831.6,721.4,831.6z"/>
					<path id="XMLID_360_" class="st17" d="M708.7,868.1l-6.1,83.7c-0.3,6.2,4.6,11.4,10.9,11.4H809
						C760.7,947.8,723,912.4,708.7,868.1z"/>
					<path id="XMLID_359_" class="st10" d="M796.6,856.4c-2.7,0-4.8-2.2-4.8-4.8v-33.2c0-12.9-10.5-23.4-23.4-23.4
						c-12.9,0-23.4,10.5-23.4,23.4v33.2c0,2.7-2.2,4.8-4.8,4.8c-2.7,0-4.8-2.2-4.8-4.8v-33.2c0-18.2,14.8-33,33-33
						c18.2,0,33,14.8,33,33v33.2C801.4,854.3,799.3,856.4,796.6,856.4z"/>
				</g>
				<g>
					<g id="XMLID_354_">
						<path id="XMLID_357_" class="st5" d="M1374.8,1384.9h-201.8c-4.2,0-7.6-3.4-7.6-7.6l0,0c0-4.2,3.4-7.6,7.6-7.6h201.8
							c4.2,0,7.6,3.4,7.6,7.6l0,0C1382.4,1381.5,1379,1384.9,1374.8,1384.9z"/>
						<path id="XMLID_356_" class="st5" d="M1374.8,1417.6h-201.8c-4.2,0-7.6-3.4-7.6-7.6l0,0c0-4.2,3.4-7.6,7.6-7.6h201.8
							c4.2,0,7.6,3.4,7.6,7.6l0,0C1382.4,1414.1,1379,1417.6,1374.8,1417.6z"/>
						<path id="XMLID_355_" class="st5" d="M1374.8,1450.2h-201.8c-4.2,0-7.6-3.4-7.6-7.6l0,0c0-4.2,3.4-7.6,7.6-7.6h201.8
							c4.2,0,7.6,3.4,7.6,7.6l0,0C1382.4,1446.8,1379,1450.2,1374.8,1450.2z"/>
					</g>
					<g id="XMLID_351_">
						<path id="XMLID_353_" class="st5" d="M1374.8,1482.8h-201.8c-4.2,0-7.6-3.4-7.6-7.6l0,0c0-4.2,3.4-7.6,7.6-7.6h201.8
							c4.2,0,7.6,3.4,7.6,7.6l0,0C1382.4,1479.4,1379,1482.8,1374.8,1482.8z"/>
						<path id="XMLID_352_" class="st5" d="M1374.8,1515.5h-201.8c-4.2,0-7.6-3.4-7.6-7.6v0c0-4.2,3.4-7.6,7.6-7.6h201.8
							c4.2,0,7.6,3.4,7.6,7.6v0C1382.4,1512,1379,1515.5,1374.8,1515.5z"/>
					</g>
				</g>
				<g>
					<path id="XMLID_53_" class="st8" d="M1223.8,1323.8v3.7c0,4.5-2.2,7-6.6,7s-6.6-2.6-6.6-7V1313c0-4.5,2.2-7,6.6-7
						s6.6,2.6,6.6,7v2.7h-4.2v-3c0-2-0.9-2.8-2.3-2.8c-1.4,0-2.3,0.8-2.3,2.8v15.1c0,2,0.9,2.7,2.3,2.7c1.4,0,2.3-0.7,2.3-2.7v-4
						H1223.8z"/>
					<path id="XMLID_55_" class="st8" d="M1230.9,1334.2h-4.4v-28h4.4v12h5v-12h4.5v28h-4.5v-12h-5V1334.2z"/>
					<path id="XMLID_57_" class="st8" d="M1247.9,1318h6v4h-6v8.2h7.6v4h-12v-28h12v4h-7.6V1318z"/>
					<path id="XMLID_59_" class="st8" d="M1271,1323.8v3.7c0,4.5-2.2,7-6.6,7c-4.3,0-6.6-2.6-6.6-7V1313c0-4.5,2.2-7,6.6-7
						c4.3,0,6.6,2.6,6.6,7v2.7h-4.2v-3c0-2-0.9-2.8-2.3-2.8c-1.4,0-2.3,0.8-2.3,2.8v15.1c0,2,0.9,2.7,2.3,2.7c1.4,0,2.3-0.7,2.3-2.7
						v-4H1271z"/>
					<path id="XMLID_61_" class="st8" d="M1279.5,1323.1l-1.4,2.6v8.6h-4.4v-28h4.4v12.2l5.8-12.2h4.4l-6.1,12.5l6.1,15.5h-4.5
						L1279.5,1323.1z"/>
					<path id="XMLID_63_" class="st8" d="M1289.6,1313c0-4.5,2.4-7,6.7-7c4.3,0,6.7,2.6,6.7,7v14.6c0,4.5-2.4,7-6.7,7
						c-4.3,0-6.7-2.6-6.7-7V1313z M1294,1327.8c0,2,0.9,2.8,2.3,2.8c1.4,0,2.3-0.8,2.3-2.8v-15.1c0-2-0.9-2.8-2.3-2.8
						c-1.4,0-2.3,0.8-2.3,2.8V1327.8z"/>
					<path id="XMLID_66_" class="st8" d="M1310,1306.2v21.6c0,2,0.9,2.7,2.3,2.7c1.4,0,2.3-0.7,2.3-2.7v-21.6h4.2v21.3
						c0,4.5-2.2,7-6.6,7c-4.3,0-6.6-2.6-6.6-7v-21.3H1310z"/>
					<path id="XMLID_68_" class="st8" d="M1320.5,1306.2h13.6v4h-4.6v24h-4.4v-24h-4.6V1306.2z"/>
				</g>
				<g id="XMLID_339_">
					<polygon id="XMLID_350_" class="st7" points="1356.1,983.1 1362,996.3 1370.5,984.6 1373.6,998.8 1384.3,989.1 1384.4,1003.6 
						1396.9,996.4 1393.9,1010.5 1407.7,1006.1 1401.8,1019.3 1416.2,1017.8 1407.7,1029.6 1422.1,1031.1 1411.4,1040.8 
						1425.1,1045.3 1412.6,1052.6 1425.1,1059.8 1411.4,1064.3 1422.1,1074 1407.7,1075.6 1416.2,1087.3 1401.8,1085.8 1407.7,1099 
						1393.9,1094.6 1396.9,1108.7 1384.4,1101.5 1384.3,1116 1373.6,1106.3 1370.5,1120.5 1362,1108.8 1356.1,1122 1350.2,1108.8 
						1341.6,1120.5 1338.6,1106.3 1327.8,1116 1327.8,1101.5 1315.3,1108.7 1318.2,1094.6 1304.5,1099 1310.3,1085.8 1295.9,1087.3 
						1304.4,1075.6 1290,1074 1300.8,1064.3 1287,1059.8 1299.5,1052.6 1287,1045.3 1300.8,1040.8 1290,1031.1 1304.4,1029.6 
						1295.9,1017.8 1310.3,1019.3 1304.5,1006.1 1318.2,1010.5 1315.3,996.4 1327.8,1003.6 1327.8,989.1 1338.6,998.8 1341.6,984.6 
						1350.2,996.3 					"/>
					<g id="XMLID_340_">
						<path id="XMLID_348_" class="st8" d="M1316.8,1042.6c0-3.2,0.8-5.6,2.3-7.3c1.5-1.7,3.8-2.6,6.8-2.6c3,0,5.3,0.9,6.8,2.6
							c1.5,1.7,2.3,4.1,2.3,7.3v1.2h-5.8v-1.6c0-1.4-0.3-2.4-0.8-3c-0.5-0.6-1.3-0.9-2.3-0.9c-1,0-1.7,0.3-2.3,0.9
							c-0.5,0.6-0.8,1.6-0.8,3c0,1.3,0.3,2.5,0.9,3.6c0.6,1,1.3,2,2.2,2.9c0.9,0.9,1.9,1.8,2.9,2.8c1,0.9,2,1.9,2.9,3
							c0.9,1.1,1.6,2.3,2.2,3.7s0.9,3,0.9,4.9c0,3.2-0.8,5.6-2.3,7.3c-1.6,1.7-3.8,2.6-6.9,2.6c-3,0-5.3-0.9-6.9-2.6
							c-1.6-1.7-2.3-4.1-2.3-7.3v-2.4h5.8v2.8c0,1.4,0.3,2.4,0.9,3c0.6,0.6,1.4,0.8,2.3,0.8s1.7-0.3,2.3-0.8s0.9-1.6,0.9-3
							c0-1.3-0.3-2.5-0.9-3.6c-0.6-1-1.3-2-2.2-2.9c-0.9-0.9-1.9-1.8-2.9-2.7s-2-1.9-2.9-3c-0.9-1.1-1.6-2.3-2.2-3.7
							C1317.1,1046.1,1316.8,1044.4,1316.8,1042.6z"/>
						<path id="XMLID_345_" class="st8" d="M1358.5,1072.4h-6.2l-1.1-7.1h-7.6l-1.1,7.1h-5.7l6.3-39.3h9L1358.5,1072.4z
							 M1344.4,1060h5.9l-3-19.9L1344.4,1060z"/>
						<path id="XMLID_343_" class="st8" d="M1361.4,1033.1h6.2v33.7h10.2v5.6h-16.3V1033.1z"/>
						<path id="XMLID_341_" class="st8" d="M1386.6,1049.7h8.5v5.6h-8.5v11.5h10.7v5.6h-16.8v-39.3h16.8v5.6h-10.7V1049.7z"/>
					</g>
				</g>
				<g>
					<path id="XMLID_338_" class="st11" d="M1035.3,1073.1h-392c-0.9,0-1.6-0.7-1.6-1.6v-24c0-0.9,0.7-1.6,1.6-1.6h392
						c0.9,0,1.6,0.7,1.6,1.6v24C1037,1072.4,1036.2,1073.1,1035.3,1073.1z"/>
					<g id="XMLID_334_">
						<path id="XMLID_337_" class="st5" d="M1029.3,1126.4H689.5c-4.2,0-7.6-3.4-7.6-7.6l0,0c0-4.2,3.4-7.6,7.6-7.6h339.8
							c4.2,0,7.6,3.4,7.6,7.6l0,0C1037,1122.9,1033.6,1126.4,1029.3,1126.4z"/>
						<path id="XMLID_336_" class="st5" d="M1029.3,1159H689.5c-4.2,0-7.6-3.4-7.6-7.6l0,0c0-4.2,3.4-7.6,7.6-7.6h339.8
							c4.2,0,7.6,3.4,7.6,7.6l0,0C1037,1155.6,1033.6,1159,1029.3,1159z"/>
						<path id="XMLID_335_" class="st5" d="M1029.3,1191.6H689.5c-4.2,0-7.6-3.4-7.6-7.6l0,0c0-4.2,3.4-7.6,7.6-7.6h339.8
							c4.2,0,7.6,3.4,7.6,7.6l0,0C1037,1188.2,1033.6,1191.6,1029.3,1191.6z"/>
					</g>
					<path id="XMLID_333_" class="st12" d="M653.5,1130.6L653.5,1130.6c-6.6,0-11.9-5.3-11.9-11.9l0,0c0-6.6,5.3-11.9,11.9-11.9h0
						c6.6,0,11.9,5.3,11.9,11.9l0,0C665.4,1125.3,660.1,1130.6,653.5,1130.6z"/>
					<path id="XMLID_332_" class="st12" d="M653.5,1163.3L653.5,1163.3c-6.6,0-11.9-5.3-11.9-11.9l0,0c0-6.6,5.3-11.9,11.9-11.9h0
						c6.6,0,11.9,5.3,11.9,11.9l0,0C665.4,1157.9,660.1,1163.3,653.5,1163.3z"/>
					<path id="XMLID_331_" class="st12" d="M653.5,1195.9L653.5,1195.9c-6.6,0-11.9-5.3-11.9-11.9l0,0c0-6.6,5.3-11.9,11.9-11.9h0
						c6.6,0,11.9,5.3,11.9,11.9l0,0C665.4,1190.6,660.1,1195.9,653.5,1195.9z"/>
					<g id="XMLID_328_">
						<path id="XMLID_330_" class="st5" d="M1029.3,1224.2H689.5c-4.2,0-7.6-3.4-7.6-7.6l0,0c0-4.2,3.4-7.6,7.6-7.6h339.8
							c4.2,0,7.6,3.4,7.6,7.6l0,0C1037,1220.8,1033.6,1224.2,1029.3,1224.2z"/>
						<path id="XMLID_329_" class="st5" d="M1029.3,1256.9H689.5c-4.2,0-7.6-3.4-7.6-7.6l0,0c0-4.2,3.4-7.6,7.6-7.6h339.8
							c4.2,0,7.6,3.4,7.6,7.6l0,0C1037,1253.5,1033.6,1256.9,1029.3,1256.9z"/>
					</g>
					<path id="XMLID_327_" class="st12" d="M653.5,1228.5L653.5,1228.5c-6.6,0-11.9-5.3-11.9-11.9l0,0c0-6.6,5.3-11.9,11.9-11.9h0
						c6.6,0,11.9,5.3,11.9,11.9l0,0C665.4,1223.2,660.1,1228.5,653.5,1228.5z"/>
					<path id="XMLID_326_" class="st12" d="M653.5,1261.2L653.5,1261.2c-6.6,0-11.9-5.3-11.9-11.9l0,0c0-6.6,5.3-11.9,11.9-11.9h0
						c6.6,0,11.9,5.3,11.9,11.9l0,0C665.4,1255.8,660.1,1261.2,653.5,1261.2z"/>
				</g>
				<path id="XMLID_325_" class="st11" d="M860.2,1521H657.1c-8.3,0-15.1-6.8-15.1-15.1v-197.2c0-8.3,6.8-15.1,15.1-15.1h203.1
					c8.3,0,15.1,6.8,15.1,15.1v197.2C875.3,1514.2,868.6,1521,860.2,1521z"/>
				<path id="XMLID_324_" class="st11" d="M1118,1521H914.9c-8.3,0-15.1-6.8-15.1-15.1v-197.2c0-8.3,6.8-15.1,15.1-15.1H1118
					c8.3,0,15.1,6.8,15.1,15.1v197.2C1133.1,1514.2,1126.3,1521,1118,1521z"/>
				<g>
					<g id="XMLID_70_">
						<polygon id="XMLID_71_" class="st18" points="1012.2,1342.3 1037.6,1380.8 1061.9,1342.3 						"/>
						<polygon id="XMLID_72_" class="st18" points="988.2,1380.8 1012.2,1342.3 964.5,1342.3 						"/>
					</g>
					<polygon class="st18" points="1084.6,1380.8 1038.2,1380.8 1013.7,1471.2 					"/>
					<polygon id="XMLID_73_" class="st19" points="988.2,1380.8 1014.1,1471.2 1037.6,1380.8 					"/>
					<g id="XMLID_78_">
						<g id="XMLID_75_">
							<polygon id="XMLID_76_" class="st20" points="1061.9,1342.3 1038.2,1380.8 1084.6,1380.8 							"/>
							<polygon id="XMLID_77_" class="st20" points="1012.2,1342.3 988,1380.5 964.5,1342.3 941.8,1380.8 988.2,1380.8 
								988.2,1380.8 1037.6,1380.8 							"/>
						</g>
					</g>
					<polygon id="XMLID_81_" class="st18" points="941.8,1380.8 988.2,1380.8 1014.1,1471.2 					"/>
				</g>
				<g>
					<rect x="725.1" y="1330.5" class="st8" width="6" height="13.3"/>
					<rect x="787.2" y="1330.5" class="st8" width="6" height="13.3"/>
					<path id="XMLID_82_" class="st7" d="M788.5,1383.7c-0.2-0.3-0.3-0.5-0.5-0.8c-2.8-5.2-1.4-11.5,2.7-15.7
						c10.4-10.5,2.5-27.2,2.5-27.2c-13.7-12.9-33.9-0.4-33.9-0.4h-0.4c0,0-20.1-12.4-33.9,0.4c0,0-7.9,16.6,2.5,27.2
						c4.1,4.2,5.5,10.5,2.7,15.7c-0.1,0.3-0.3,0.5-0.5,0.8c0,0-15.4,35.6-49.3,65.1c0,0,12.4,27,78.4,32.6h0.4
						c66-5.6,78.4-32.6,78.4-32.6C803.9,1419.2,788.5,1383.7,788.5,1383.7z"/>
					<path id="XMLID_83_" class="st7" d="M774.8,1386.7h-30.9c0,0-10.3,50.1-35.1,87.4c0,0,13.3,9.3,48.8,10.2l0,0.1
						c0.6,0,1.1,0,1.7,0c0.6,0,1.1,0,1.7,0l0-0.1c35.5-1,48.8-10.2,48.8-10.2C785.1,1436.8,774.8,1386.7,774.8,1386.7z"/>
					<path id="XMLID_84_" class="st8" d="M831.3,1442.8c-4.5,4.4-12.6,10.6-26.1,15.9c-0.6,0.2-1,0.7-1.2,1.2
						c-0.2,0.6-0.1,1.2,0.2,1.7c0.5,0.8,1,1.6,1.5,2.4c-4.3,2.3-17.7,8.1-45.1,8.9c-0.1,0-0.3,0-0.4,0.1c-0.2,0-0.5,0-0.7,0l-0.6,0
						l-0.6,0c-0.2,0-0.4,0-0.7,0c-0.1,0-0.3-0.1-0.4-0.1c-27-0.7-39.8-5.8-44-7.9c0.5-0.8,1-1.6,1.6-2.5c0.3-0.5,0.4-1.1,0.2-1.7
						c-0.2-0.6-0.6-1-1.2-1.2c-13-5.1-21.2-12.2-25.9-17.6c-1,0.9-1.9,1.9-2.9,2.8c4.8,5.4,12.8,12.3,25.2,17.6
						c-0.5,0.7-0.9,1.4-1.4,2.1c-0.6,0.9-0.4,2.1,0.5,2.7c0.5,0.4,12.1,8.6,47.5,9.6c0.2,0.1,0.4,0.1,0.6,0.1c0,0,0,0,0,0
						c0.4,0,0.8,0,1.2,0l0.5,0l0.6,0c0.4,0,0.8,0,1.2,0c0.2,0,0.4,0,0.5-0.1c35.4-1,48-10.2,48.5-10.6c0.8-0.6,1-1.8,0.5-2.7
						c-0.4-0.6-0.9-1.3-1.3-2c12.9-5.4,20.8-11.5,25.4-16C833.2,1444.7,832.2,1443.8,831.3,1442.8z"/>
					<g id="XMLID_85_">
						<path id="XMLID_86_" class="st21" d="M815.7,1471.5c-12.7-19-26.6-41-34.4-59.3c5.6,17.7,14.8,41.5,28.1,61.6
							c0,0-2,1.4-6.6,3.2C811.9,1474.2,815.7,1471.5,815.7,1471.5z"/>
						<path id="XMLID_87_" class="st21" d="M709.3,1473.8c13.5-20.3,22.7-44.4,28.3-62.1h-0.3c-7.9,18.4-21.5,40.7-34.3,59.9
							c0,0,3.8,2.7,12.8,5.4C711.4,1475.2,709.3,1473.8,709.3,1473.8z"/>
					</g>
				</g>
			</g>
			<g id="XMLID_286_">
				<g id="XMLID_288_">
					<path id="XMLID_321_" class="st22" d="M1163.8,376.4l-60.4,104.7c0.6,1.7,1.2,3.1,2,4.4c-6.4,7.4-18.4,18.8-32.6,18.7
						c-4.7-2.1-10.3-3.6-12.7-3.3c-3.1,0.5-5.1,3.5-4.4,6.5c3,13.7,29.7,11.3,29.7,11.3s9-0.4,14.6,3c8,3.3,17.4,0.9,17.4,0.9
						c4.3-7.9,0.5-14.1,0.5-14.1c0.1-1.3,0.6-6.4,2.8-12.3c1.2,0.2,1.9,0.2,1.9,0.2c34-23.1,58.4-51.8,74.7-75.5
						c0,0-0.1,0.1-0.1,0.1l32.1,83.7c0,0,1.7,0.3,4.4,0.3c2.6,6,7.2,18.1,8.1,31.2c0,0,1.2,15-2.6,23c-4.7,5.5-6.3,9.5-6.4,12.3
						c-0.2,3.9,3.6,6.9,7.4,5.9c13.7-3.5,20.2-16.4,20.2-16.4c3.8-7.5,11.8-16.9,15.3-20.9c1.7-2,2.8-4.5,2.8-7.1
						c-0.2-8.8-11.5-11.6-11.5-11.6l0,0c-0.5-0.3-1-0.6-1.6-0.9c-2.8-1.4-5.2-3.3-7-5.8c-2.2-3.1-4.6-7.9-6.4-15.3
						c1.1-0.9,2.2-1.8,3.3-2.9c0,0-9.8-80-25.8-119.1c49.1,22.6,102,25.2,102,25.2c24.7,1.7,36-10.8,40.7-26.1H1163.8z"/>
					<g id="XMLID_289_">
						<g id="XMLID_293_">
							<g id="XMLID_301_">
								<rect id="XMLID_320_" x="1291.5" y="278.3" class="st16" width="49.6" height="42.5"/>
								<g id="XMLID_318_">
									<path id="XMLID_319_" class="st16" d="M1258.3,235.5l10.5-24.2c11-21,32.5-26.1,32.5-26.1l15.1-4.7l30.6-6l22.8,4.8
										c0,0,14.1,1,26.5,26.4c0.3,0.7,0.6,1.4,0.9,2.2l24.6,73.9c0,0,10,22.5-16.5,28l-35.3,2l-42.2,0.8c0,0-5-7.3,0-19.8
										l-34.2-0.7l-35.3-37V235.5z"/>
								</g>
								<path id="XMLID_317_" class="st23" d="M1343.5,148.5l-28.5,23.7c0,0,3,5.2,0,11.4c0,0,19.7,6.4,34.7-6.9
									C1349.7,176.8,1342,161.3,1343.5,148.5z"/>
								<path id="XMLID_316_" class="st14" d="M1223.3,364.5c0,0-9.5,21.8-26.1,46.6l32.1,83.7c0,0,15.3,2.8,25.9-8.3
									c0,0-9.8-80-25.8-119.1C1227.4,366.4,1225.3,365.5,1223.3,364.5z"/>
								<path id="XMLID_315_" class="st24" d="M1100.1,511.8c8,3.3,17.4,0.9,17.4,0.9c4.3-7.9,0.5-14.1,0.5-14.1
									c-8.4-0.5-15.2,1.7-15.2,1.7c-25.1,5.7-30-5.9-30-5.9c-4.7-2.1-10.3-3.6-12.7-3.3c-3.1,0.5-5.1,3.5-4.4,6.5
									c3,13.7,29.7,11.3,29.7,11.3S1094.4,508.4,1100.1,511.8z"/>
								<path id="XMLID_313_" class="st25" d="M1107.3,473.3c-5.6,7-18.8,21.1-34.5,21c0,0,5,11.7,30,5.9c0,0,6.8-1.8,15.2-1.3
									c0,0,0.3-6.7,3.4-14.3C1117.4,483.5,1111.2,480.7,1107.3,473.3z"/>
								<path id="XMLID_312_" class="st13" d="M1372,317.1c0,0,19.3,79.6-40.7,75.5c0,0-57.3-2.8-108-28.1c0,0-29.1,73.3-100.7,122
									c0,0-14,0-19.3-15.3l79.3-137.3c0,0,10.7-22,41.3-22h146L1372,317.1z"/>
								<path id="XMLID_310_" class="st25" d="M1265.4,510.5c-2.8-1.4-5.2-3.3-7-5.8c-2.2-3.1-4.6-7.9-6.4-15.3
									c-6.4,4.8-13.7,5.7-18.2,5.7c2.6,6,7.2,18.1,8.1,31.2c0,0,1.2,15-2.6,23c0,0,6.9,4,17.9-11.5l11.8-18.5
									C1268.8,519.3,1272.6,514,1265.4,510.5z"/>
								<path id="XMLID_309_" class="st24" d="M1266.9,511.4c5.1,3.5,1.9,7.9,1.9,7.9l-11.8,18.5c-11,15.5-17.9,11.5-17.9,11.5
									c-4.7,5.5-6.3,9.5-6.4,12.3c-0.2,3.9,3.6,6.9,7.4,5.9c13.7-3.5,20.2-16.4,20.2-16.4c3.8-7.5,11.8-16.9,15.3-20.9
									c1.7-2,2.8-4.5,2.8-7.1C1278.3,514.2,1266.9,511.4,1266.9,511.4z"/>
								<rect id="XMLID_308_" x="1205.3" y="309.8" class="st26" width="129.3" height="5.7"/>
								<polygon id="XMLID_307_" class="st11" points="1189.5,235.5 1295.7,235.5 1312.3,309.8 1206,309.8 								"/>
								<path id="XMLID_305_" class="st27" d="M1326.4,309.3l-8.8-3.2c-0.8-0.3-1.7-0.4-2.5-0.4h-3.7l-2.6-11.7h5.6
									c0.7,0,1.4,0.1,2,0.3l10,2.8C1326.4,297.1,1324.7,303.2,1326.4,309.3z"/>
								<path id="XMLID_304_" class="st28" d="M1369.8,225.5l25.5,57.8c-26.5,1.5-67.5,9.5-67.5,9.5s-2.8,4.6-1.3,17
									c0,0-6.3-9.8-0.1-18.7c0,0,9.6-5.9,59.9-10.6L1369.8,225.5z"/>
								<path id="XMLID_303_" class="st28" d="M1375,189.3c0,0-12.5,4.3,5.4,60.1l-2.7,2.2C1377.7,251.6,1356.2,193.7,1375,189.3z"
									/>
								<path id="XMLID_302_" class="st28" d="M1291.5,203.3c0,0-7.6,9.8-11.1,32.2h7.5C1287.8,235.5,1284.6,224.8,1291.5,203.3z"/>
							</g>
							<g id="XMLID_299_">
								<path id="XMLID_300_" class="st3" d="M1291.6,135.4c-0.5,7.4,0.7,14.9,3.6,21.6c1.3,3,3.1,6,6.3,8.5c0,0,6.7,5,13.9,4.8
									c0,0,2.6,8.5,1.1,12.6l-22.3,6.4c0,0-7.6,3-12,6.3c0,0,9.5-19.5,0-37.9c0,0-19.7-47.7,14.4-65.4c0,0,52.5-28.2,68.3,48.9
									l0.3,0.9c6.1,22.4,21.4,40.7,27.4,56.7c-7.3-9.9-13.8-15.1-16.9-17.2c-1.1-0.8-2.4-1.3-3.7-1.5l-24-3.9
									c-6.6-12.7-4-31.4-4-31.4c7.3-2.8,6.7-11.9,6.7-11.9c-1-8.7-7.6-5.7-7.6-5.7c-23.7,2.8-47.8-7.1-47.8-7.1
									S1292.3,125.7,1291.6,135.4z"/>
							</g>
							<g id="XMLID_295_">
								<g id="XMLID_99_">
									<path id="XMLID_100_" class="st27" d="M1284.3,121.9c0,0-4.4,39.3,29.1,52.4c2.4,0.9,5.1,0.9,7.5,0
										c6.3-2.4,20.6-7.8,23.5-23.2l1.5-7.1c0,0,4.4-2.3,4.8-9.2c0.1-1.4,0-2.8-0.4-4.2c-0.8-2.8-2.9-6.7-8.6-4.2l0.8-11.3
										L1284.3,121.9z"/>
								</g>
							</g>
							<path id="XMLID_294_" class="st3" d="M1343.3,109.8l-17.1-2.1l-29.8,1.4l-15.7,11.6l3.5,33.8l20.2,21.8l10.5-1.3
								c-9.1-4.4-13.3-9.4-13.3-9.4c-3.1-2.5-5-5.5-6.3-8.5c-3-6.8-4.2-14.3-3.6-21.6c0.7-9.7,3.6-15.2,3.6-15.2s24.1,9.9,47.8,7.1
								c0,0,6.6-2.9,7.6,5.7l3.1-5.3L1343.3,109.8z"/>
						</g>
						<g id="XMLID_290_">
							<circle id="XMLID_292_" class="st8" cx="1246.5" cy="277.1" r="8.5"/>
							<path id="XMLID_291_" class="st8" d="M1246.8,266.5c0,0.2,0,0.4,0,0.7c0.2,0,0.4,0,0.7,0c3.8,0,6.8-3,6.8-6.8
								c0-0.2,0-0.4,0-0.7c-0.2,0-0.4,0-0.7,0C1249.8,259.7,1246.8,262.8,1246.8,266.5z"/>
						</g>
					</g>
				</g>
				<path id="XMLID_287_" class="st8" d="M1347,127c-5.3,4.4-13.8,10.4-13.8,10.4c6.3,9.3,7.8,19.8,7.8,19.8
					c4.2-7.3,4.9-13.3,4.9-13.3c0.8,9.4-6.3,19.8-6.3,19.8c-16.5,16.3-26.7,11.4-26.7,11.4c-14.9-5.7-19-20.6-19-20.6
					s30.7-9.6,49.2-27.3c0,0,0.7-0.5,2-0.6C1345.7,126.6,1346.4,126.7,1347,127L1347,127z"/>
			</g>
			<g id="XMLID_273_">
				<ellipse id="XMLID_285_" class="st29" cx="462.9" cy="1799.2" rx="344.6" ry="17.6"/>
				<g id="XMLID_274_">
					<rect id="XMLID_284_" x="193.9" y="1653" class="st30" width="202.3" height="146.2"/>
					<rect id="XMLID_283_" x="291.5" y="1488.1" class="st31" width="239.5" height="311.1"/>
					<rect id="XMLID_282_" x="376.8" y="1488.1" class="st32" width="204.4" height="311.1"/>
					<rect id="XMLID_281_" x="513.1" y="1587.7" class="st33" width="219.7" height="211.5"/>
					
						<rect id="XMLID_280_" x="436.4" y="1587.7" transform="matrix(-1 -1.224647e-16 1.224647e-16 -1 949.5453 3386.9243)" class="st30" width="76.7" height="211.5"/>
					<path id="XMLID_279_" class="st8" d="M710.2,1777.4h-37.7c-3.3,0-6-2.7-6-6v-25.6c0-3.3,2.7-6,6-6h37.7c3.3,0,6,2.7,6,6v25.6
						C716.2,1774.7,713.5,1777.4,710.2,1777.4z"/>
					<rect id="XMLID_278_" x="543.4" y="1587.7" class="st8" width="57.9" height="85.2"/>
					<rect id="XMLID_277_" x="502.1" y="1488.1" class="st8" width="53.4" height="70.5"/>
					<rect id="XMLID_276_" x="238.4" y="1653" class="st33" width="157.8" height="146.2"/>
					<rect id="XMLID_275_" x="257.6" y="1653.8" class="st8" width="37.7" height="55.5"/>
				</g>
			</g>
			<path id="XMLID_272_" class="st8" d="M355.8,997.2c-10.2-15.3-17.8-13.9-18.2-13.9c-0.5,0.1-0.9,0.6-0.8,1.2
				c0.1,0.5,0.6,0.9,1.2,0.8c0.1,0,6.9-1,16.4,13.5c-0.3,1.5-0.6,4.1-0.6,7.4c-0.1,0-0.2,0-0.3,0c-3.5,0.3-6.4-0.9-8.2-2
				c-0.5-0.3-1.1-0.1-1.4,0.4c-0.3,0.5-0.1,1.1,0.4,1.4c1.9,1.1,4.7,2.3,8.2,2.3c0.4,0,0.8,0,1.2-0.1c0.1,0,0.1,0,0.2-0.1
				c0.2,3.1,0.7,6.6,1.9,10c0,0,9.1,8.4,22,8.1c0,0,16.4-4.1,20.8-18.3l1.7-10.2C400.2,997.6,386.5,988.4,355.8,997.2z"/>
			<g id="XMLID_262_">
				<g id="XMLID_265_">
					<path id="XMLID_266_" class="st7" d="M1661,1087.5c-21.2,0-38.4,17.2-38.4,38.4c0,21.2,38.4,74.6,38.4,74.6
						s38.4-53.4,38.4-74.6C1699.4,1104.7,1682.2,1087.5,1661,1087.5z M1661,1150.8c-13.7,0-24.9-11.2-24.9-24.9s11.2-24.9,24.9-24.9
						s24.9,11.2,24.9,24.9S1674.7,1150.8,1661,1150.8z"/>
				</g>
				<circle id="XMLID_263_" class="st8" cx="1661" cy="1125.9" r="24.9"/>
			</g>
			<ellipse id="XMLID_261_" class="st29" cx="1340.5" cy="1796.1" rx="219.4" ry="12.7"/>
			<g id="XMLID_44_">
				<rect x="1277.1" y="1553.7" class="st33" width="204.4" height="239.1"/>
				
					<rect x="1192.2" y="1553.7" transform="matrix(-1 -1.224647e-16 1.224647e-16 -1 2469.2451 3346.4851)" class="st30" width="84.9" height="239.1"/>
				<rect x="1404.3" y="1552.5" class="st8" width="54" height="108"/>
				<path class="st8" d="M1348.4,1774.3H1306c-4.3,0-7.7-3.5-7.7-7.7v-34.7c0-4.3,3.5-7.7,7.7-7.7h42.4c4.3,0,7.7,3.5,7.7,7.7v34.7
					C1356.1,1770.9,1352.7,1774.3,1348.4,1774.3z"/>
			</g>
			<g id="XMLID_238_">
				<path id="XMLID_108_" class="st22" d="M1743,1770.4l-1.7-9.4l-4.8-20.9c0.8-1,1.6-2,2.4-3.2c0,0-8-63.8-42.9-122.9
					c-0.1-0.2-0.3-0.4-0.4-0.7l-14.8-21.6c-1.2-1.8-1.9-3.9-1.9-6v-38.2c4.6-1,7.4-1.8,7.4-1.8c-10.1-42-1.6-116.9-1.6-116.9
					c6.8-55.5-10.4-72.7-10.4-72.7s-0.7,0.5-2,1.2c-1.8-6.9-2.6-15.2-3-21.1l0,0c1.3-1.1,2.6-2.3,3.8-3.7c0,0-0.1,0.1-0.1,0.1
					c18.2-18,22-31.3,21.5-40.6h0.1c1,0,1.8-0.8,1.8-1.8v-3.4c0-0.7-0.4-1.3-1-1.6l-5-21.4c-0.6-4.1-3.2-7.6-6.9-9.3l-20.3-9.7
					c-2.9-1.4-6.1-1.6-9.2-0.6l-20.6,6.7c-4.5,1.5-9.8,6-10.4,10.7l-6,23.4h-8.4c-1.9,0-3.5,1.5-3.5,3.5c0,1.9,1.5,3.5,3.5,3.5h12.2
					c0.9,2.5,1.5,5.5,1.5,5.5s0,0-0.1,0c-0.3,3-1.1,11.4-0.5,19.7c-0.7,0.3-1,0.6-1,0.6l1.7,10.2c3.4,11.1,14.3,16.1,18.8,17.7
					c0.3,6-0.3,11-0.9,14.8c-0.7-0.2-1.4-0.5-2.2-0.8c-36.2,7.4-38.4,75.2-38.4,75.2l-2.9,21.4V1325h-52.3h-20.6h-39.4h-89.7v164.4
					h107.3c-0.2,0-0.3,0.1-0.3,0.1c-2.7-0.2-4.3,0.6-5.4,1.6c-1.2,1.2-0.5,3.3,1.2,3.5l15.2,0.6c1.2,0,2.3-0.3,3.2-1l8.4-4.9h19
					c0.7,0.9,1.2,1.4,1.2,1.4c17.5,3.9,33.4,5.4,46.9,5.7l-6.6,49.3c3.3,1.6,6.8,2.9,10.5,4c0,0,0,0,0,0v76.9l14.2,139.3
					c0,0,0.8,0.2,2.2,0.5v0c0,0.4,0,0.8,0,1.1c-0.1,8-5.6,14.9-13.2,17.2c-13,3.8-19.8,8.3-23.1,11.1c-0.4,0.3-0.7,0.8-1,1.4
					l142.4-1.1c9.8-6.5,19.2-14.5,23.8-18.6C1742.6,1775.6,1743.5,1773,1743,1770.4z M1642.5,1361.2c-0.8-0.2-1.6-0.4-2.4-0.7
					C1640.9,1360.8,1641.7,1361,1642.5,1361.2z M1713.2,1755.6c-0.8,6.7-3.9,12.9-8.8,17.5c-10.6,10-15,17.6-16.9,22.2
					c-10-0.2-20.3-0.3-31-0.3c-6.5,0-12.9,0-19.1,0.1l2.4-20.5v-10.2c0.8-0.4,1.7-0.9,2.5-1.5c0,0,9.8-61,10-115.8l59.5,104.1
					c0,0,0.7,0.1,1.9,0.1C1713.5,1752.7,1713.4,1754.1,1713.2,1755.6z"/>
				<g id="XMLID_239_">
					<ellipse id="XMLID_260_" class="st29" cx="1666.5" cy="1796" rx="135.4" ry="11.1"/>
					<g id="XMLID_240_">
						<path id="XMLID_259_" class="st9" d="M1650.2,1481.3c1.3-0.4,2.4-1.3,3-2.5l31-65.6c7.6-24.6,4.6-38.9,0.2-46.8
							c-5.3-9.6-18.5-11.8-26.2-4c-7.6,7.6-10.3,20.3-10.3,20.3l-18.7,69.3c-6.4,0-14.6,0.4-23.3,0.9l3.7-27.9
							c0,0,2.2-67.8,38.4-75.2c19.5,7.6,36.2-3.7,36.2-3.7s17.2,17.2,10.4,72.7c0,0-8.5,74.9,1.6,116.9c0,0-65.6,17.7-101.4,0
							l6.6-49.3C1626.9,1486.9,1644.4,1482.9,1650.2,1481.3z"/>
						<path id="XMLID_258_" class="st24" d="M1714.4,1763c4.9-4.6,8-10.8,8.8-17.5c0.2-1.4,0.3-2.9,0.3-4.4
							c4.2,0,14.7-1.2,22.9-11.1l4.8,20.9l1.7,9.4c0.5,2.6-0.4,5.3-2.4,7.1c-9.2,8.3-38.6,32.9-50.5,27.9c-2.3-1-3.8-6.9-2.9-9.3
							C1698.8,1781.7,1703.1,1773.7,1714.4,1763z"/>
						<path id="XMLID_257_" class="st2" d="M1688.8,1537.5v38.2c0,2.2,0.7,4.3,1.9,6l14.8,21.6c0.1,0.2,0.3,0.4,0.4,0.7
							c35,59.1,42.9,122.9,42.9,122.9c-10.5,16-27.1,14.2-27.1,14.2l-83.1-145.5c-0.4-0.8-0.8-1.6-1-2.5l-15.8-50.3
							C1647.2,1545.6,1675.7,1540.4,1688.8,1537.5z"/>
						<path id="XMLID_256_" class="st24" d="M1585.5,1785.8c3.3-2.8,10.1-7.3,23.1-11.1c7.7-2.2,13.1-9.2,13.2-17.2
							c0-0.4,0-0.8,0-1.1v0c5.2,1.1,18.2,3,28.1-2.1v10.2l-3,25.5c-0.8,2.5-2.9,4.4-5.5,5c-12.1,2.9-47.1,10.1-57.7,0.3
							C1581.7,1793.6,1583.6,1787.4,1585.5,1785.8z"/>
						<g id="XMLID_254_">
							<path id="XMLID_255_" class="st34" d="M1622.1,1542.9c-0.1,0-0.2,0-0.3,0l15.8,50.3c0.2,0.9,0.6,1.7,1,2.5l23.7,41.4
								c-0.1,54.8-10,115.8-10,115.8c-12.5,8.6-32.8,3.1-32.8,3.1l-14.2-139.3v-76.9C1610.6,1541.3,1616.2,1542.3,1622.1,1542.9z"/>
						</g>
						<path id="XMLID_253_" class="st24" d="M1703.2,1275.5c2.6,9,2.7,24.3-20.4,47.2c4.4-5.6,6.4-13,6.4-13
							c10.8-4.5,8.9-10.7,8.9-10.7c-0.2-2.1-1.6-3.1-2.9-3.5c-1.9-0.6-3.9-0.2-5.5,0.9c-2.4,1.7-3.6,4.4-4.1,6.3
							c1.9-10.7-4.3-18.4-8.2-22c-1.6-1.5-3.5-2.4-5.6-2.7l-21.5-2.6c-15.4-1.1-18.1,12.4-18.1,12.4s-1.7-8-3.5-9c0,0,1.1-1.3,0-2.3
							l5.3,1.6l1.4-10.3l58.5-4.8L1703.2,1275.5z"/>
						<path id="XMLID_252_" class="st27" d="M1632.2,1287.7c0,0,2.7-13.5,18.1-12.4l21.5,2.6c2.1,0.3,4.1,1.2,5.6,2.7
							c3.8,3.6,10.1,11.3,8.2,22c0.5-1.8,1.6-4.6,4.1-6.3c1.6-1.1,3.6-1.5,5.5-0.9c1.3,0.4,2.7,1.4,2.9,3.5c0,0,1.9,6.2-8.9,10.7
							c0,0-1.9,7.3-6.3,12.9c-6.6,7.2-14.8,10.9-20.9,12.8c-5,1.6-10.5,0.9-14.9-2c-14.5-9.3-14.6-18.5-14.6-18.5
							C1630.5,1304.7,1631.7,1291.6,1632.2,1287.7C1632.2,1287.7,1632.2,1287.7,1632.2,1287.7z"/>
						<path id="XMLID_251_" class="st23" d="M1650.1,1350.5c0.7-3.8,1.2-9,0.9-15.3c3.5,1.2,7.4,1.2,11,0.1c4.9-1.5,11.3-4.3,17-9.2
							c0.4,5.9,1.2,14.2,3,21.1C1677.3,1349.9,1664.7,1355.3,1650.1,1350.5z"/>
						<g id="XMLID_244_">
							
								<rect id="XMLID_250_" x="1404.6" y="1315" transform="matrix(-1 -1.224647e-16 1.224647e-16 -1 2959.0405 2794.2991)" class="st32" width="149.7" height="164.4"/>
							<rect id="XMLID_249_" x="1554.4" y="1315" class="st31" width="52.3" height="164.4"/>
							<path id="XMLID_248_" class="st8" d="M1420.1,1464.4h25.7c2.3,0,4.1-1.8,4.1-4.1v-17.5c0-2.3-1.8-4.1-4.1-4.1h-25.7
								c-2.3,0-4.1,1.8-4.1,4.1v17.5C1416,1462.6,1417.8,1464.4,1420.1,1464.4z"/>
							
								<rect id="XMLID_247_" x="1494.3" y="1315" transform="matrix(-1 -1.224647e-16 1.224647e-16 -1 3028.0525 2708.1631)" class="st8" width="39.4" height="78.2"/>
							<path id="XMLID_246_" class="st27" d="M1506.3,1481c1-1,2.7-1.8,5.4-1.6c0,0,14.1-3,18.9-12c0,0-3.8,0.2-6.7-1.8
								c-1.2-0.8-0.8-2.6,0.5-2.9c2.5-0.6,6.9-1.8,13.6-4.5c0,0,5.2-2.2,20,1.5l8.4,2l-4.2,18.9l-19.7-6l-16.7,9.7
								c-0.9,0.7-2.1,1.1-3.2,1l-15.2-0.6C1505.8,1484.3,1505.1,1482.2,1506.3,1481z"/>
							<path id="XMLID_245_" class="st7" d="M1684.4,1366.4c4.4,7.9,7.4,22.2-0.2,46.8l-31,65.6c-0.6,1.2-1.7,2.2-3,2.5
								c-8.9,2.4-45.3,10.6-95.8-0.6c0,0-9.5-9.2,0-23.1c0,0,50.5-5.7,74.7-5.6l18.7-69.3c0,0,2.7-12.7,10.3-20.3
								C1665.9,1354.7,1679,1356.8,1684.4,1366.4z"/>
						</g>
						<path id="XMLID_243_" class="st8" d="M1675,1307.5c10.2-15.3,17.8-13.9,18.2-13.9c0.5,0.1,0.9,0.6,0.8,1.2
							c-0.1,0.5-0.6,0.9-1.2,0.8c-0.1,0-6.9-1-16.4,13.5c0.3,1.5,0.6,4.1,0.6,7.4c0.1,0,0.2,0,0.3,0c3.5,0.3,6.4-0.9,8.2-2
							c0.5-0.3,1.1-0.1,1.4,0.4c0.3,0.5,0.1,1.1-0.4,1.4c-1.9,1.1-4.7,2.3-8.2,2.3c-0.4,0-0.8,0-1.2-0.1c-0.1,0-0.1,0-0.2-0.1
							c-0.2,3.1-0.7,6.6-1.9,10c0,0-9.1,8.4-22,8.1c0,0-16.4-4.1-20.8-18.3l-1.7-10.2C1630.6,1307.9,1644.3,1298.7,1675,1307.5z"/>
						<path id="XMLID_242_" class="st7" d="M1700.2,1254c-0.6-4.1-3.2-7.6-6.9-9.3l-20.3-9.7c-2.9-1.4-6.1-1.6-9.2-0.6l-20.6,6.7
							c-4.5,1.5-9.8,6-10.4,10.7l-6.8,26.9h80L1700.2,1254z"/>
						<path id="XMLID_241_" class="st9" d="M1704.4,1282.2h-86c-1.9,0-3.5-1.5-3.5-3.5l0,0c0-1.9,1.5-3.5,3.5-3.5h86
							c1,0,1.8,0.8,1.8,1.8v3.4C1706.2,1281.4,1705.4,1282.2,1704.4,1282.2z"/>
					</g>
				</g>
			</g>
			<g id="XMLID_45_">
				<path id="XMLID_234_" class="st22" d="M679.5,1123.1l-23.3-93c-1.4-5.7-7.2-9.1-12.9-7.7l-152.8,38.3c-5.7,1.4-9.1,7.2-7.7,12.9
					l20.3,81c-1.7-0.4-6.2-1-14.9,0.8c-0.2-0.4-0.4-0.7-0.7-1.1c0,0-27.4-3.1-51.5-4.7c0,0,0,0,0,0l-3.7-27.9
					c0,0-2.2-67.8-38.4-75.2c-0.7,0.3-1.4,0.5-2.1,0.8c-0.7-3.8-1.2-9-0.9-15.3c-0.4,0.1-0.9,0.3-1.3,0.4c1.8-0.5,3.6-1.2,5.2-2.2
					c14.5-9.3,14.6-18.5,14.6-18.5c2-10.2,0.9-23.3,0.4-27.3c0.3-0.1,1.4-0.5,2.9-1.4c0,0,3.4-2.2,4.5-3.2c4.2-3.7,8.7-9.9,9.7-19.8
					c0,0-7.1,2.4-10.8,0.1c0,0,2.1-3.4,2.7-5.8c1.4-4.2,2.2-10.3-1.4-16c0,0-3.4,6.3-16.6,8.5c0,0,4.1-3.3,3.3-7.9
					c0,0-8.7,4.5-22.7,3.1c-6.4-0.6-12.8,0-18.9,2.1c-4.9,1.7-10.1,4.6-14.1,9.2c-2.7,2.7-5.3,8.6-5.3,8.6l-2.5,5.6
					c-2.5,1.3-4.1,4.7-4.1,4.7c-2.6,9-0.6,24.3,22.5,47.2c0,0-0.1-0.1-0.1-0.1c1.2,1.3,2.5,2.6,3.8,3.7c-0.4,5.9-1.2,14.2-3,21.1
					c0.1,0.1,0.3,0.1,0.4,0.2c-1.6-0.8-2.5-1.4-2.5-1.4s-17.2,17.2-10.4,72.7c0,0,8.5,74.9-1.6,116.9c0,0,2.7,0.7,7.4,1.8v38.2
					c0,2.2-0.7,4.2-1.9,6l-14.8,21.6c-0.1,0.2-0.3,0.4-0.4,0.7c-35,59.1-42.9,122.9-42.9,122.9c0.8,1.2,1.5,2.2,2.4,3.2l0,0
					l-4.8,20.9l-1.7,9.4c-0.5,2.6,0.4,5.3,2.4,7.1c9.2,8.3,38.6,32.9,50.5,27.9c2.3-1,3.8-6.9,2.9-9.3c-1.6-4.4-5.9-12.4-17.2-23.1
					c-4.9-4.6-8-10.8-8.8-17.5c-0.2-1.4-0.3-2.9-0.3-4.4c1.2,0,1.9-0.1,1.9-0.1l83.1-145.5l-23.7,41.4c0.1,54.8,10,115.8,10,115.8
					c0.8,0.5,1.6,1,2.5,1.5v10.2l3,25.5c0.8,2.5,2.9,4.4,5.5,5c12.1,2.9,47.1,10.1,57.7,0.3c1.8-1.7,0-7.9-1.9-9.5
					c-3.3-2.8-10.1-7.3-23.1-11.1c-7.7-2.2-13.1-9.2-13.2-17.2c0-0.4,0-0.8,0-1.1v0c0,0,0,0,0,0c1.4-0.3,2.2-0.5,2.2-0.5l14.2-139.3
					v-76.9c0,0,0,0,0,0c3.7-1.1,7.2-2.4,10.5-4l-6.6-49.3c-0.9,0-1.7,0-2.6,0c14.1-0.1,30.9-1.6,49.5-5.7c0,0,1.2-1.2,2.3-3.3
					l9.5-2.9l16.7,9.7c0.9,0.7,2.1,1.1,3.2,1l15.2-0.6c1.7-0.3,2.4-2.4,1.2-3.5c-1-1-2.7-1.8-5.4-1.6c0,0-3.5-0.7-7.6-2.6
					l149.2-37.4C677.4,1134.5,680.9,1128.7,679.5,1123.1z"/>
				<g id="XMLID_142_">
					<path id="XMLID_233_" class="st35" d="M381.7,1170.9c-1.3-0.4-2.4-1.3-3-2.5l-31-65.6c-7.6-24.6-4.6-38.9-0.2-46.8
						c5.3-9.6,18.5-11.8,26.2-4c7.6,7.6,10.3,20.3,10.3,20.3l18.7,69.3c6.4,0,14.6,0.4,23.3,0.9l-3.7-27.9c0,0-2.2-67.8-38.4-75.2
						c-19.5,7.6-36.2-3.7-36.2-3.7s-17.2,17.2-10.4,72.7c0,0,8.5,74.9-1.6,116.9c0,0,65.6,17.7,101.4,0l-6.6-49.3
						C405,1176.5,387.5,1172.4,381.7,1170.9z"/>
					<path id="XMLID_230_" class="st24" d="M317.5,1452.5c-4.9-4.6-8-10.8-8.8-17.5c-0.2-1.4-0.3-2.9-0.3-4.4
						c-4.2,0-14.7-1.2-22.9-11.1l-4.8,20.9l-1.7,9.4c-0.5,2.6,0.4,5.3,2.4,7.1c9.2,8.3,38.6,32.9,50.5,27.9c2.3-1,3.8-6.9,2.9-9.3
						C333.1,1471.3,328.8,1463.2,317.5,1452.5z"/>
					<path id="XMLID_229_" class="st13" d="M343.1,1227v38.2c0,2.2-0.7,4.2-1.9,6l-14.8,21.6c-0.1,0.2-0.3,0.4-0.4,0.7
						c-35,59.1-42.9,122.9-42.9,122.9c10.5,16,27.1,14.2,27.1,14.2l83.1-145.5c0.4-0.8,0.8-1.6,1-2.5l15.8-50.3
						C384.6,1235.1,356.2,1229.9,343.1,1227z"/>
					<path id="XMLID_228_" class="st24" d="M446.4,1475.3c-3.3-2.8-10.1-7.3-23.1-11.1c-7.7-2.2-13.1-9.2-13.2-17.2
						c0-0.4,0-0.8,0-1.1v0c-5.2,1.1-18.2,3-28.1-2.1v10.2l3,25.5c0.8,2.5,2.9,4.4,5.5,5c12.1,2.9,47.1,10.1,57.7,0.3
						C450.1,1483.2,448.3,1477,446.4,1475.3z"/>
					<g id="XMLID_224_">
						<path id="XMLID_225_" class="st14" d="M409.8,1232.4c0.1,0,0.2,0,0.3,0l-15.8,50.3c-0.2,0.9-0.6,1.7-1,2.5l-23.7,41.4
							c0.1,54.8,10,115.8,10,115.8c12.5,8.6,32.8,3.1,32.8,3.1l14.2-139.3v-76.9C421.3,1230.8,415.6,1231.8,409.8,1232.4z"/>
					</g>
					<path id="XMLID_223_" class="st24" d="M333.2,954.7c0,0,2.6-5.9,5.3-8.6c4-4.6,9.3-7.4,14.1-9.2c6-2.2,12.5-2.7,18.9-2.1
						c14,1.4,22.7-3.1,22.7-3.1c0.8,4.6-3.3,7.9-3.3,7.9c13.2-2.2,16.6-8.5,16.6-8.5c3.6,5.7,2.8,11.7,1.4,16
						c-0.7,2.4-2.7,5.8-2.7,5.8c3.7,2.3,10.8-0.1,10.8-0.1c-1,9.9-5.5,16.1-9.7,19.8c-1.1,1-4.5,3.2-4.5,3.2c-1.8,1-3,1.4-3,1.4
						s-2.7-13.5-18.1-12.4l-21.5,2.6c-2.1,0.3-4.1,1.2-5.6,2.7c-3.8,3.6-10.1,11.3-8.2,22c-0.5-1.8-1.6-4.6-4.1-6.3
						c-1.6-1.1-3.6-1.5-5.5-0.9c-1.3,0.4-2.7,1.4-2.9,3.5c0,0-1.9,6.2,8.9,10.7c0,0,2,7.4,6.4,13c-23.1-22.9-25.1-38.2-22.5-47.2
						c0,0,1.6-3.5,4.1-4.7L333.2,954.7z"/>
					<path id="XMLID_219_" class="st27" d="M399.7,977.2c0,0-2.7-13.5-18.1-12.4l-21.5,2.6c-2.1,0.3-4.1,1.2-5.6,2.7
						c-3.8,3.6-10.1,11.3-8.2,22c-0.5-1.8-1.6-4.6-4.1-6.3c-1.6-1.1-3.6-1.5-5.5-0.9c-1.3,0.4-2.7,1.4-2.9,3.5c0,0-1.9,6.2,8.9,10.7
						c0,0,1.9,7.3,6.3,12.9c6.6,7.2,14.8,10.9,20.9,12.8c5,1.6,10.5,0.9,14.9-2c14.5-9.3,14.6-18.5,14.6-18.5
						C401.4,994.3,400.2,981.1,399.7,977.2C399.7,977.2,399.7,977.2,399.7,977.2z"/>
					<path id="XMLID_203_" class="st23" d="M381.8,1040.1c-0.7-3.8-1.2-9-0.9-15.3c-3.5,1.2-7.4,1.2-11,0.1
						c-4.9-1.5-11.3-4.3-17-9.2c-0.4,5.9-1.2,14.2-3,21.1C354.5,1039.4,367.2,1044.8,381.8,1040.1z"/>
					<g id="XMLID_145_">
						<path id="XMLID_201_" class="st2" d="M661.8,1128.9l-152.8,38.3c-5.7,1.4-11.4-2-12.9-7.7l-23.3-93c-1.4-5.7,2-11.4,7.7-12.9
							l152.8-38.3c5.7-1.4,11.4,2,12.9,7.7l23.3,93C670.9,1121.7,667.4,1127.5,661.8,1128.9z"/>
						<path id="XMLID_196_" class="st33" d="M642.2,1083l-29.5,7.3c-2.6,0.6-5.2-0.9-5.8-3.5l-5.2-21c-0.6-2.6,0.9-5.2,3.5-5.8
							l29.5-7.3c2.6-0.6,5.2,0.9,5.8,3.5l5.2,21C646.4,1079.8,644.8,1082.4,642.2,1083z"/>
						<g id="XMLID_158_">
							<path id="XMLID_194_" class="st36" d="M619.1,1101.4l1.1,4.4c0.2,0.7,0.9,1.2,1.7,1l28-7c0.7-0.2,1.2-0.9,1-1.7l-1.1-4.4
								c-0.2-0.7-0.9-1.2-1.7-1l-28,7C619.4,1099.9,618.9,1100.7,619.1,1101.4z"/>
							<path id="XMLID_192_" class="st36" d="M585.7,1108.3l-23.8,5.9c-0.7,0.2-1.2,0.9-1,1.7l1.1,4.4c0.2,0.8,0.9,1.2,1.7,1
								l23.8-5.9c0.7-0.2,1.2-0.9,1-1.7l-1.1-4.4C587.2,1108.5,586.5,1108.1,585.7,1108.3z"/>
							<path id="XMLID_188_" class="st36" d="M534.6,1128.6l23.8-5.9c0.7-0.2,1.2-0.9,1-1.7l-1.1-4.4c-0.2-0.7-0.9-1.2-1.7-1
								l-23.8,5.9c-0.7,0.2-1.2,0.9-1,1.7l1.1,4.4C533.1,1128.3,533.8,1128.8,534.6,1128.6z"/>
							<path id="XMLID_162_" class="st36" d="M527.5,1122.8l-24.8,6.2c-0.7,0.2-1.2,0.9-1,1.7l1.1,4.4c0.2,0.7,0.9,1.2,1.7,1
								l24.8-6.2c0.7-0.2,1.2-0.9,1-1.7l-1.1-4.4C529,1123,528.2,1122.6,527.5,1122.8z"/>
							<path id="XMLID_161_" class="st36" d="M614.8,1101L591,1107c-0.7,0.2-1.2,0.9-1,1.7l1.1,4.4c0.2,0.7,0.9,1.2,1.7,1l23.8-5.9
								c0.7-0.2,1.2-0.9,1-1.7l-1.1-4.4C616.3,1101.3,615.6,1100.9,614.8,1101z"/>
						</g>
						<path id="XMLID_153_" class="st37" d="M513.4,1091.9l-17.6,4.4c-1.3,0.3-2.6-0.5-2.9-1.8l-4.4-17.6c-0.3-1.3,0.5-2.6,1.8-2.9
							l17.6-4.4c1.3-0.3,2.6,0.5,2.9,1.8l4.4,17.6C515.5,1090.2,514.7,1091.6,513.4,1091.9z"/>
					</g>
					<path id="XMLID_144_" class="st27" d="M525.6,1170.5c-1-1-2.7-1.8-5.4-1.6c0,0-14.1-3-18.9-12c0,0,3.8,0.2,6.7-1.8
						c1.2-0.8,0.8-2.6-0.5-2.9c-2.5-0.6-6.9-1.8-13.6-4.5c0,0-5.2-2.2-20,1.5l-8.4,2l4.2,18.9l19.7-6l16.7,9.7
						c0.9,0.7,2.1,1.1,3.2,1l15.2-0.6C526.1,1173.8,526.8,1171.7,525.6,1170.5z"/>
					<path id="XMLID_143_" class="st38" d="M347.5,1056c-4.4,7.9-7.4,22.2,0.2,46.8l31,65.6c0.6,1.2,1.7,2.2,3,2.5
						c8.9,2.4,45.3,10.6,95.8-0.6c0,0,9.5-9.2,0-23.1c0,0-50.5-5.7-74.7-5.6l-18.7-69.3c0,0-2.7-12.7-10.3-20.3
						C366,1044.2,352.9,1046.4,347.5,1056z"/>
				</g>
			</g>
			<g id="XMLID_112_">
				<path id="XMLID_115_" class="st3" d="M1860,671.1c-1-1-2.5-1-3.5-0.1l-131.4,124.4l44.2-126.6c0.5-1.3-0.2-2.7-1.5-3.2
					c-1.3-0.5-2.7,0.2-3.2,1.5l-43.3,124l-43.3-124c-0.5-1.3-1.9-2-3.2-1.5c-1.3,0.5-2,1.9-1.5,3.2l44.2,126.6L1586.1,671
					c-1-0.9-2.6-0.9-3.5,0.1c-0.9,1-0.9,2.6,0.1,3.5l134.8,127.6l-0.4,1.2c-0.4,1.1,0,2.3,1,2.9c0.4,0.3,0.9,0.4,1.4,0.4
					c0.6,0,1.2-0.2,1.7-0.7l0.2-0.2l0.2,0.2c0.5,0.5,1.1,0.7,1.7,0.7c0.5,0,0.9-0.1,1.4-0.4c1-0.6,1.4-1.8,1-2.9l-0.4-1.2
					l134.8-127.6C1860.9,673.6,1861,672.1,1860,671.1z"/>
				<rect x="1598.5" y="770.8" class="st33" width="192.9" height="173.7"/>
				<polygon id="XMLID_116_" class="st30" points="1837.6,963.8 1791.3,944.5 1791.3,770.8 1837.6,790.1 				"/>
				<polygon id="XMLID_117_" class="st39" points="1598.5,944.5 1643.5,965.1 1837.6,963.8 1791.3,944.5 				"/>
				<rect x="1617.8" y="770.8" class="st8" width="38.6" height="73.3"/>
				<path class="st8" d="M1774,932.8h-37.3c-2.5,0-4.5-2-4.5-4.5v-32.1c0-2.5,2-4.5,4.5-4.5h37.3c2.5,0,4.5,2,4.5,4.5v32.1
					C1778.5,930.8,1776.5,932.8,1774,932.8z"/>
				<path id="XMLID_118_" class="st7" d="M1719.3,525.2c-55,0-103,29.7-128.9,74c-17.1,29.2-22.5,63.8-16.2,97l0,0
					c0-26.9,21.8-48.7,48.7-48.7c25.2,0,45.8,19.1,48.4,43.5h0.9c2.6-24.5,23.3-43.5,48.4-43.5c25.2,0,45.8,19.1,48.4,43.5h0.9
					c2.6-24.5,23.3-43.5,48.4-43.5c26.4,0,47.9,21,48.7,47.2c0.9-6.6,1.4-13.4,1.4-20.3C1868.5,592.1,1801.7,525.2,1719.3,525.2z"/>
				<path id="XMLID_119_" class="st8" d="M1717.2,525.3c0,0-0.1,0-0.1,0c-71,56.7-44.8,165.8-44.8,165.8
					c2.6-24.5,23.3-43.5,48.4-43.5c25.2,0,45.8,19.1,48.4,43.5h0.9C1778.5,556.8,1719.4,526.4,1717.2,525.3z"/>
				<path id="XMLID_120_" class="st9" d="M1717.2,525.3c-54.1,0.7-101.2,30.2-126.8,73.9c-17.1,29.2-22.5,63.8-16.2,97l0,0
					c0-18.5,10.3-34.5,25.4-42.8C1618.6,539.3,1717.2,525.3,1717.2,525.3z"/>
			</g>
			<g id="XMLID_121_">
				<g id="XMLID_122_">
					<path id="XMLID_128_" class="st7" d="M369,794.5c-21.2,0-38.4,17.2-38.4,38.4c0,21.2,38.4,74.6,38.4,74.6s38.4-53.4,38.4-74.6
						C407.4,811.7,390.2,794.5,369,794.5z M369,857.8c-13.7,0-24.9-11.2-24.9-24.9c0-13.7,11.2-24.9,24.9-24.9s24.9,11.2,24.9,24.9
						C393.8,846.6,382.7,857.8,369,857.8z"/>
				</g>
				<circle id="XMLID_133_" class="st8" cx="369" cy="832.9" r="24.9"/>
			</g>
		</g>
		<g id="XMLID_43_">
			<path class="st40" d="M807.1,315.4c10.6-21.2,32.5-35.7,57.7-35.7c9.1,0,17.8,1.9,25.7,5.3c8.6-13.1,23.4-21.8,40.2-21.8
				c7.4,0,14.4,1.7,20.7,4.7c1.8-28.7,25.6-51.4,54.8-51.4c30.3,0,54.9,24.6,54.9,54.9c0,0.4,0,0.8,0,1.1c5.9-2.5,12.4-3.9,19.2-3.9
				c26.4,0,47.9,20.7,49.3,46.7H807.1z"/>
			<path id="XMLID_134_" class="st40" d="M1822.2,223.5c-10.6-21.2-32.5-35.7-57.7-35.7c-9.1,0-17.8,1.9-25.7,5.3
				c-8.6-13.1-23.4-21.8-40.2-21.8c-7.4,0-14.4,1.7-20.7,4.7c-1.8-28.7-25.6-51.4-54.8-51.4c-30.3,0-54.9,24.6-54.9,54.9
				c0,0.4,0,0.8,0,1.1c-5.9-2.5-12.4-3.9-19.2-3.9c-26.4,0-47.9,20.7-49.3,46.7H1822.2z"/>
			<path id="XMLID_135_" class="st40" d="M469.8,222.5c-10.6-21.2-32.5-35.7-57.7-35.7c-9.1,0-17.8,1.9-25.7,5.3
				c-8.6-13.1-23.4-21.8-40.2-21.8c-7.4,0-14.4,1.7-20.7,4.7c-1.8-28.7-25.6-51.4-54.8-51.4c-30.3,0-54.9,24.6-54.9,54.9
				c0,0.4,0,0.8,0,1.1c-5.9-2.5-12.4-3.9-19.2-3.9c-26.4,0-47.9,20.7-49.3,46.7H469.8z"/>
		</g>
	</g>
</g>
</svg>
