<svg data-v-423bf9ae="" xmlns="http://www.w3.org/2000/svg" viewBox="0 0 399 90" class="iconLeft"><!----><!----><!----><g data-v-423bf9ae="" id="099079a5-b7e1-4b4e-a9be-bbba2c2e3e71" fill="white" transform="matrix(5.917159562968884,0,0,5.917159562968884,124.29661164339939,-7.426034994767505)"><path d="M6.93 4.68C6.34 4.17 5.46 3.92 4.30 3.92L1.89 3.92L0.70 3.92L0.70 4.19C0.70 4.34 0.80 4.42 0.98 4.44L1.12 4.44C1.19 4.44 1.29 4.45 1.43 4.45C1.57 4.45 1.72 4.47 1.89 4.47L1.89 13.26C1.72 13.26 1.57 13.27 1.43 13.27C1.29 13.27 1.19 13.29 1.12 13.29L0.98 13.29C0.80 13.30 0.70 13.38 0.70 13.54L0.70 13.82L1.89 13.82L2.60 13.82L3.78 13.82L3.78 13.54C3.78 13.38 3.68 13.30 3.50 13.29L3.37 13.29C3.30 13.29 3.19 13.27 3.05 13.27C2.91 13.27 2.77 13.26 2.60 13.26L2.60 9.83L4.30 9.83C4.84 9.83 5.33 9.74 5.77 9.60C6.20 9.45 6.57 9.25 6.87 8.99C7.18 8.72 7.42 8.41 7.57 8.05C7.74 7.69 7.81 7.29 7.81 6.86C7.81 5.92 7.52 5.18 6.93 4.68ZM6.90 7.81C6.78 8.11 6.59 8.36 6.36 8.57C6.12 8.78 5.82 8.95 5.47 9.07C5.12 9.20 4.73 9.25 4.30 9.25L2.60 9.25L2.60 4.48L4.30 4.48C5.22 4.48 5.92 4.69 6.40 5.10C6.86 5.50 7.10 6.09 7.10 6.85C7.10 7.20 7.03 7.52 6.90 7.81ZM17.47 13.22L17.01 13.17L13.23 3.91L12.52 3.91L8.72 13.17L8.27 13.22C8.09 13.23 8.01 13.33 8.01 13.50L8.01 13.82L8.46 13.82L8.75 13.82L9.00 13.82L9.10 13.82L10.42 13.82L10.42 13.50C10.42 13.31 10.30 13.23 10.09 13.22C10.08 13.22 10.05 13.20 10.01 13.20C9.97 13.20 9.91 13.19 9.81 13.19C9.72 13.19 9.59 13.19 9.45 13.17L10.43 10.75L10.50 10.57L15.23 10.57L15.30 10.75L16.28 13.17C16.14 13.19 16.03 13.19 15.93 13.19C15.83 13.19 15.76 13.20 15.72 13.20C15.68 13.20 15.65 13.22 15.64 13.22C15.43 13.23 15.32 13.31 15.32 13.50L15.32 13.82L16.63 13.82L16.73 13.82L17.00 13.82L17.28 13.82L17.74 13.82L17.74 13.50C17.74 13.33 17.65 13.23 17.47 13.22ZM12.67 5.22C12.70 5.14 12.74 5.04 12.77 4.94C12.80 4.84 12.84 4.75 12.87 4.63C12.89 4.75 12.94 4.84 12.96 4.94C12.99 5.04 13.03 5.12 13.06 5.21L15.02 10.04L10.72 10.04ZM21.78 4.44C21.97 4.42 22.05 4.34 22.05 4.19L22.05 3.91L20.87 3.91L20.16 3.91L18.97 3.91L18.97 4.19C18.97 4.34 19.07 4.42 19.25 4.44L19.39 4.44C19.46 4.44 19.56 4.45 19.70 4.45C19.84 4.45 19.99 4.47 20.16 4.47L20.16 13.26C19.99 13.26 19.84 13.27 19.70 13.27C19.56 13.27 19.46 13.29 19.39 13.29L19.25 13.29C19.07 13.30 18.97 13.38 18.97 13.54L18.97 13.82L20.16 13.82L20.87 13.82L22.05 13.82L22.05 13.54C22.05 13.38 21.97 13.30 21.78 13.29L21.64 13.29C21.57 13.29 21.48 13.27 21.34 13.27C21.20 13.27 21.04 13.26 20.87 13.26L20.87 4.47C21.04 4.47 21.20 4.45 21.34 4.45C21.48 4.45 21.57 4.44 21.64 4.44ZM26.21 4.44C26.39 4.42 26.47 4.34 26.47 4.19L26.47 3.91L25.30 3.91L24.58 3.91L23.39 3.91L23.39 4.19C23.39 4.34 23.49 4.42 23.67 4.44L23.81 4.44C23.88 4.44 23.98 4.45 24.12 4.45C24.26 4.45 24.42 4.47 24.58 4.47L24.58 13.26C24.42 13.26 24.26 13.27 24.12 13.27C23.98 13.27 23.88 13.29 23.81 13.29L23.67 13.29C23.49 13.30 23.39 13.38 23.39 13.54L23.39 13.82L24.58 13.82L25.30 13.82L26.47 13.82L26.47 13.54C26.47 13.38 26.39 13.30 26.21 13.29L26.07 13.29C26.00 13.29 25.90 13.27 25.76 13.27C25.62 13.27 25.47 13.26 25.30 13.26L25.30 4.47C25.47 4.47 25.62 4.45 25.76 4.45C25.90 4.45 26.00 4.44 26.07 4.44ZM37.09 8.86C37.09 8.11 36.96 7.41 36.74 6.79C36.51 6.17 36.19 5.64 35.77 5.19C35.35 4.75 34.86 4.40 34.29 4.16C33.71 3.92 33.05 3.79 32.35 3.79C31.65 3.79 31.02 3.92 30.45 4.16C29.88 4.40 29.37 4.75 28.95 5.19C28.53 5.64 28.21 6.17 27.99 6.79C27.76 7.41 27.64 8.11 27.64 8.86C27.64 9.63 27.76 10.33 27.99 10.95C28.21 11.56 28.53 12.10 28.95 12.54C29.37 12.99 29.88 13.33 30.45 13.57C31.02 13.80 31.65 13.93 32.35 13.93C33.05 13.93 33.71 13.80 34.29 13.57C34.86 13.33 35.35 12.99 35.77 12.54C36.19 12.10 36.51 11.56 36.74 10.95C36.96 10.33 37.09 9.63 37.09 8.86ZM36.33 8.86C36.33 9.56 36.25 10.18 36.05 10.72C35.85 11.27 35.59 11.75 35.24 12.12C34.89 12.50 34.47 12.81 33.98 13.01C33.49 13.20 32.96 13.30 32.35 13.30C31.77 13.30 31.23 13.20 30.74 13.01C30.25 12.81 29.83 12.50 29.48 12.12C29.13 11.75 28.85 11.27 28.66 10.72C28.46 10.18 28.38 9.56 28.38 8.86C28.38 8.18 28.46 7.55 28.66 7.00C28.85 6.45 29.13 5.98 29.48 5.60C29.83 5.22 30.25 4.91 30.74 4.72C31.23 4.52 31.77 4.41 32.35 4.41C32.96 4.41 33.49 4.52 33.98 4.72C34.47 4.91 34.89 5.22 35.24 5.60C35.59 5.98 35.85 6.45 36.05 7.00C36.25 7.55 36.33 8.18 36.33 8.86ZM46.09 12.21C46.06 12.18 46.02 12.15 45.98 12.15C45.95 12.15 45.93 12.15 45.91 12.17C45.89 12.18 45.86 12.21 45.84 12.22C45.64 12.40 45.43 12.56 45.23 12.70C45.04 12.84 44.83 12.94 44.59 13.03C44.35 13.13 44.10 13.20 43.82 13.24C43.54 13.29 43.23 13.31 42.88 13.31C42.32 13.31 41.78 13.22 41.30 13.01C40.81 12.81 40.40 12.52 40.05 12.14C39.70 11.76 39.41 11.28 39.21 10.74C39.02 10.19 38.92 9.56 38.92 8.86C38.92 8.18 39.02 7.56 39.21 7.01C39.42 6.47 39.70 6.01 40.07 5.61C40.43 5.24 40.87 4.94 41.37 4.73C41.87 4.52 42.42 4.42 43.02 4.42C43.92 4.42 44.74 4.56 45.47 4.89C45.51 5.78 45.56 6.30 45.56 6.41C45.57 6.64 45.65 6.75 45.85 6.75L46.19 6.75L46.19 4.51C45.01 4.03 43.95 3.81 43.02 3.81C42.31 3.81 41.66 3.92 41.06 4.17C40.47 4.42 39.94 4.76 39.52 5.21C39.09 5.66 38.77 6.19 38.53 6.80C38.29 7.42 38.18 8.11 38.18 8.86C38.18 9.63 38.30 10.32 38.53 10.95C38.75 11.58 39.07 12.10 39.48 12.54C39.89 12.99 40.38 13.33 40.95 13.57C41.52 13.80 42.14 13.93 42.83 13.93C43.23 13.93 43.61 13.90 43.96 13.83C44.30 13.76 44.62 13.66 44.91 13.54C45.19 13.41 45.46 13.26 45.70 13.09C45.93 12.91 46.16 12.73 46.37 12.50Z"></path></g><!----><g data-v-423bf9ae="" id="1a0c68b6-39b1-4658-9c04-f5e2a1596512" transform="matrix(1.20489463933586,0,0,1.20489463933586,-5.2439900070748,-14.592532041907837)" stroke="none" fill="white"><path d="M92.754 60.094v-.216h2.188l-1.903-25.83c0-3.275-2.842-5.93-6.348-5.93h-.316c-3.506 0-6.346 2.654-6.346 5.93l-.235 3.183-10.695 12.51a3.058 3.058 0 1 0 4.648 3.974l5.286-6.185-.909 12.348h2.188v.216l-2.233 23.911a3.059 3.059 0 0 0 6.09.57l2.161-23.147h.406l2.161 23.147a3.056 3.056 0 0 0 3.328 2.76 3.057 3.057 0 0 0 2.761-3.33l-2.232-23.911z"></path><circle cx="86.043" cy="19.363" r="6.71"></circle><circle cx="48.829" cy="83.474" r="3.874"></circle><circle cx="64.491" cy="83.474" r="3.874"></circle><path d="M75.211 59.021c-.013-.076-.024-.15-.043-.225a2.525 2.525 0 0 0-.073-.233 2.545 2.545 0 0 0-.089-.224 2.509 2.509 0 0 0-.242-.409c-.047-.066-.101-.126-.153-.188a2.826 2.826 0 0 0-.161-.167c-.06-.056-.123-.105-.188-.156-.065-.048-.13-.096-.2-.139a2.988 2.988 0 0 0-.448-.217c-.033-.011-.062-.03-.096-.04-.039-.014-.08-.015-.12-.026a2.597 2.597 0 0 0-.509-.08c-.044-.003-.086-.013-.13-.013H45.141l-.924-5.424c-.003-.014-.008-.023-.012-.037-.018-.101-.05-.194-.079-.29-.02-.063-.034-.127-.059-.186-.037-.094-.087-.18-.136-.268-.029-.054-.053-.11-.087-.161a2.387 2.387 0 0 0-.203-.257c-.032-.037-.06-.078-.094-.113a2.504 2.504 0 0 0-.281-.242c-.027-.021-.05-.045-.079-.065a2.581 2.581 0 0 0-.319-.183c-.034-.017-.065-.038-.098-.053-.095-.042-.196-.071-.296-.101-.059-.018-.113-.041-.172-.054-.08-.018-.162-.022-.245-.032-.086-.011-.169-.024-.254-.026-.015 0-.028-.004-.041-.004h-5.647L25.707 37.23l-.235-3.183c0-3.275-2.841-5.93-6.346-5.93h-.317c-3.505 0-6.346 2.654-6.346 5.93l-.235 3.193-.76 10.301-2.572 20.637h3.849v.218l-2.232 15.609a3.057 3.057 0 0 0 6.089.572l2.163-14.851h.405l2.161 14.851a3.06 3.06 0 0 0 6.091-.572l-2.234-15.611v-.216h3.848L26.465 47.53l5.286 6.185a3.054 3.054 0 0 0 2.326 1.072c.545 0 1.09-.15 1.577-.444.146.026.295.045.449.045h3.558l3.796 22.272c.001.015.008.026.01.041.013.068.036.133.054.201.024.086.047.172.079.253.024.062.054.12.083.178.041.081.081.161.128.237a2.702 2.702 0 0 0 .414.496c.064.06.134.114.206.168a2.166 2.166 0 0 0 .394.238c.057.027.11.057.168.081.096.037.196.065.295.091.05.013.096.031.146.041.154.029.312.047.474.047h21.445l.01.001c.155 0 .306-.019.457-.047l.135-.032a2.4 2.4 0 0 0 .442-.153c.094-.044.183-.094.271-.147.037-.022.076-.044.112-.068.121-.084.234-.177.34-.28.008-.008.013-.016.02-.022.096-.098.182-.203.261-.316.027-.039.051-.081.075-.121a2.465 2.465 0 0 0 .21-.427c.015-.039.036-.076.049-.118l5.395-16.849c.014-.042.015-.083.026-.123.021-.083.04-.167.054-.253.013-.088.021-.174.025-.261.002-.043.014-.081.014-.124 0-.033-.01-.066-.012-.102a2.187 2.187 0 0 0-.026-.269zM13.042 17.389a6.71 6.71 0 0 0 6.415 8.685 6.71 6.71 0 1 0 0-13.421 6.69 6.69 0 0 0-5.343 2.662c-1.028-.745-3.163-1.795-5.05.517 0 0-1.57 1.995-4.063.222 0 0 .596 3.594 4.093 2.856-.001-.001 2.192-.44 3.948-1.521z"></path></g><!----></svg>